<?xml version="1.0" encoding="utf-8"?>
<!-- Generator: Adobe Illustrator 23.0.1, SVG Export Plug-In . SVG Version: 6.00 Build 0)  -->
<svg version="1.1" id="Layer_1" xmlns="http://www.w3.org/2000/svg" xmlns:xlink="http://www.w3.org/1999/xlink" x="0px" y="0px"
	 viewBox="0 0 95.2 90.9" style="enable-background:new 0 0 95.2 90.9;" xml:space="preserve">
<style type="text/css">
	.st0{fill:#FFFFFF;}
</style>
<path class="st0" d="M20.8,90.9c-0.2,0-2.1,0-2.7-1.4c-0.5-0.9-0.2-2.2,0.9-3.7c3.1-4.2,5.4-8.2,8-13.4c2.2-4.6,3.4-10,3.8-11.6
	c-2-1.1-10.3-5.9-15.8-9.5C8.6,47.3,1.4,39.7,1.1,39.3C1.1,39.3,0,38.3,0,37c0-0.6,0.2-1.2,0.7-1.7c1-1,2.6-0.6,5.7,0
	c2.8,0.6,6.5,1.3,11.8,1.6c9.6,0.5,13.3-0.4,14.4-0.8c0-1.9,0.2-8.8,3.4-18.4c3.6-11,7-16.6,7.2-16.8l0.1-0.1l0.1-0.1
	c0.2-0.1,1.7-1.1,3-0.5c0.9,0.4,1.4,1.3,1.6,2.7c0.3,2.9,1.4,11.6,4,17c2.1,4.3,4.2,8.5,4.9,9.9c1.8-0.5,7.8-1.9,18.6-1.4
	c12.8,0.6,17.6,2.2,17.8,2.3l0.1,0.1c0.2,0.1,2,1.2,1.8,2.7c-0.1,1.1-1.1,2-3,2.7c-4.8,1.8-15,8.5-22.1,15.5c0.1,0.5,0.6,1.7,1,2.9
	c2.3,6.4,7.6,21.2,7.6,33.9c0,1-0.7,1.8-1.6,2c-0.7,0.2-3.1,0.5-5.4-3.6c0,0-3.8-5.5-10-10.4c-4.7-3.7-7.2-5.2-8.1-5.8
	c-1.6,1.4-7.7,6.7-12.7,10c-5.7,3.8-19.2,9.8-19.8,10.1l-0.1,0.1H20.8z M2.5,36.1c-0.4,0-0.6,0.1-0.8,0.2c-0.2,0.2-0.3,0.4-0.3,0.7
	c0,0.6,0.5,1.2,0.7,1.3c0.1,0.1,7.3,7.9,13.5,11.9c6.3,4,16.1,9.6,16.2,9.7l0.4,0.2l-0.1,0.5c-0.1,0.3-1.3,6.8-4,12.5
	c-2.6,5.3-5,9.3-8.1,13.6c-0.7,1-1,1.8-0.8,2.2c0.2,0.4,0.9,0.5,1.3,0.6c1.5-0.7,14.1-6.4,19.4-9.9c5.6-3.7,12.9-10.2,12.9-10.2
	l0.3-0.3l0.4,0.2c0.1,0,2.4,1.2,8.8,6.1c6.4,5,10.1,10.5,10.3,10.8c1.5,2.6,3,3.3,3.9,3c0.4-0.1,0.6-0.4,0.6-0.7
	c0-12.4-5.3-27.1-7.5-33.4c-1.3-3.6-1.3-3.8-0.9-4.2c7.2-7.2,17.8-14.2,22.8-16.1c1.9-0.7,2.1-1.3,2.1-1.5c0-0.5-0.6-1.1-1.1-1.3
	c-0.6-0.2-5.5-1.7-17.3-2.2c-12.5-0.6-18.6,1.5-18.7,1.5l-0.6,0.2L55.9,31c0,0-2.6-5.2-5.2-10.5c-2.4-5-3.5-12.4-4.2-17.5
	c-0.1-0.6-0.3-1.4-0.7-1.6c-0.5-0.2-1.2,0.1-1.5,0.3c-0.5,0.9-3.7,6.5-7,16.4C33.8,29,34,36.5,34,36.6l0,0.4l-0.3,0.2
	c-0.3,0.2-3.3,1.9-15.6,1.2c-5.4-0.3-9.2-1.1-12-1.6C4.6,36.4,3.3,36.1,2.5,36.1z"/>
<g>
	<path class="st0" d="M45,7.9c-0.3,0.7-0.9,1.1-1.4,0.9c-0.5-0.2-0.7-0.9-0.4-1.6C43.4,6.5,44,6,44.6,6.2C45.1,6.4,45.3,7.2,45,7.9z
		"/>
	<path class="st0" d="M44.6,13.6c-0.3,0.8-1.1,1.3-1.8,1c-0.7-0.3-1-1.1-0.7-2c0.3-0.8,1.1-1.3,1.8-1C44.6,11.9,44.9,12.7,44.6,13.6
		z"/>
	<path class="st0" d="M44.3,19.5c-0.5,0.9-1.5,1.2-2.2,0.8c-0.7-0.4-0.8-1.4-0.3-2.3c0.5-0.9,1.5-1.2,2.2-0.8
		C44.7,17.7,44.8,18.7,44.3,19.5z"/>
	<path class="st0" d="M44.8,25.4c-0.5,1-1.6,1.5-2.5,1c-0.8-0.4-1.1-1.6-0.6-2.6c0.5-1,1.6-1.5,2.5-1C45.1,23.3,45.3,24.4,44.8,25.4
		z"/>
	<path class="st0" d="M46.1,31.6c-0.5,1.2-1.7,1.8-2.8,1.4c-1.1-0.4-1.6-1.7-1.2-2.9c0.5-1.2,1.7-1.8,2.8-1.4
		C46,29.1,46.5,30.4,46.1,31.6z"/>
	<path class="st0" d="M47.4,37.9c-0.5,1.3-1.9,2-3,1.5c-1.2-0.4-1.8-1.9-1.3-3.2c0.5-1.3,1.9-2,3-1.5C47.4,35.1,47.9,36.6,47.4,37.9
		z"/>
	<path class="st0" d="M49.8,44.5c-0.5,1.4-2.1,2.1-3.5,1.5c-1.4-0.5-2.1-2.1-1.5-3.5c0.5-1.4,2.1-2.1,3.5-1.5
		C49.7,41.5,50.4,43.1,49.8,44.5z"/>
</g>
<g>
	<path class="st0" d="M88.1,34.7c-0.7-0.1-1.3-0.6-1.2-1.1c0.1-0.5,0.7-0.9,1.4-0.8c0.7,0.1,1.3,0.6,1.2,1.1
		C89.5,34.4,88.9,34.8,88.1,34.7z"/>
	<path class="st0" d="M82.6,35.7c-0.8-0.1-1.5-0.8-1.4-1.5c0.1-0.7,0.8-1.2,1.7-1.1c0.9,0.1,1.5,0.8,1.4,1.5
		C84.2,35.3,83.5,35.8,82.6,35.7z"/>
	<path class="st0" d="M76.9,36.9c-0.9-0.3-1.5-1.2-1.3-1.9c0.2-0.8,1.2-1.2,2.1-0.9c0.9,0.3,1.5,1.2,1.3,1.9
		C78.8,36.8,77.8,37.2,76.9,36.9z"/>
	<path class="st0" d="M71.4,38.8c-1.1-0.3-1.8-1.2-1.6-2.2c0.2-0.9,1.3-1.5,2.4-1.2c1.1,0.3,1.8,1.2,1.6,2.2
		C73.6,38.5,72.5,39,71.4,38.8z"/>
	<path class="st0" d="M65.9,41.5c-1.2-0.2-2.1-1.2-2-2.4c0.1-1.2,1.2-2,2.5-1.8c1.2,0.2,2.1,1.2,2,2.4
		C68.3,40.8,67.2,41.6,65.9,41.5z"/>
	<path class="st0" d="M60.3,44.3C59,44.2,58,43,58.1,41.7c0.1-1.3,1.4-2.1,2.7-2c1.3,0.2,2.3,1.3,2.2,2.6
		C62.9,43.6,61.7,44.5,60.3,44.3z"/>
	<path class="st0" d="M54.6,48.2c-1.4-0.2-2.5-1.6-2.3-3c0.2-1.5,1.5-2.5,3-2.3c1.4,0.2,2.5,1.6,2.3,3
		C57.4,47.4,56.1,48.4,54.6,48.2z"/>
</g>
<g>
	<path class="st0" d="M73.4,83c-0.1-0.7,0.3-1.4,0.8-1.4c0.5-0.1,1.1,0.5,1.1,1.2c0.1,0.7-0.3,1.4-0.8,1.4
		C74.1,84.3,73.5,83.8,73.4,83z"/>
	<path class="st0" d="M71.2,77.9c-0.1-0.9,0.4-1.6,1.1-1.7c0.7-0.1,1.4,0.5,1.5,1.4c0.1,0.9-0.4,1.6-1.1,1.7
		C72,79.4,71.3,78.8,71.2,77.9z"/>
	<path class="st0" d="M68.6,72.7c0.1-1,0.8-1.7,1.6-1.7c0.8,0,1.4,0.8,1.4,1.8c-0.1,1-0.8,1.7-1.6,1.7
		C69.2,74.5,68.5,73.7,68.6,72.7z"/>
	<path class="st0" d="M65.4,67.9c0-1.1,0.8-2,1.7-2c0.9,0,1.7,0.9,1.7,2c0,1.1-0.8,2-1.7,2C66.2,69.9,65.4,69,65.4,67.9z"/>
	<path class="st0" d="M61.4,63.2c-0.2-1.2,0.6-2.4,1.8-2.5c1.2-0.2,2.2,0.7,2.4,2c0.2,1.2-0.6,2.4-1.8,2.5
		C62.6,65.3,61.6,64.4,61.4,63.2z"/>
	<path class="st0" d="M57.3,58.5c-0.2-1.3,0.7-2.6,2-2.7c1.3-0.2,2.4,0.8,2.6,2.1c0.2,1.3-0.7,2.6-2,2.7
		C58.6,60.8,57.4,59.8,57.3,58.5z"/>
	<path class="st0" d="M52.1,53.9c-0.2-1.5,0.9-2.8,2.4-3c1.5-0.2,2.8,0.9,3,2.3c0.2,1.4-0.9,2.8-2.4,2.9
		C53.6,56.4,52.3,55.4,52.1,53.9z"/>
</g>
<g>
	<path class="st0" d="M24.1,84.5c0.7-0.3,1.5-0.2,1.7,0.3c0.2,0.5-0.1,1.2-0.8,1.5c-0.7,0.3-1.5,0.2-1.7-0.3
		C23,85.5,23.4,84.8,24.1,84.5z"/>
	<path class="st0" d="M28.5,80.6c0.8-0.4,1.7-0.1,2.1,0.6c0.3,0.7-0.1,1.6-0.9,1.9c-0.8,0.4-1.7,0.1-2.1-0.6
		C27.3,81.8,27.7,81,28.5,80.6z"/>
	<path class="st0" d="M32.9,76.3c1-0.3,2,0.2,2.2,1c0.2,0.8-0.4,1.7-1.4,1.9c-1,0.3-2-0.2-2.2-1C31.3,77.5,31.9,76.6,32.9,76.3z"/>
	<path class="st0" d="M36.7,71.6c1.1-0.4,2.3,0.1,2.6,1c0.3,0.9-0.3,2-1.4,2.4c-1.1,0.4-2.3-0.1-2.6-1C34.9,73,35.6,72,36.7,71.6z"
		/>
	<path class="st0" d="M40.1,66.1c1.2-0.6,2.6-0.1,3.1,1c0.5,1.1,0,2.4-1.2,3c-1.2,0.6-2.6,0.1-3.1-1C38.4,68,38.9,66.7,40.1,66.1z"
		/>
	<path class="st0" d="M43.5,60.4c1.3-0.6,2.8-0.1,3.4,1.1c0.6,1.2,0,2.7-1.3,3.3c-1.3,0.6-2.8,0.1-3.4-1.1
		C41.6,62.5,42.2,61,43.5,60.4z"/>
	<path class="st0" d="M46.4,53.8c1.4-0.6,3.1,0,3.7,1.4c0.7,1.4,0.1,3.1-1.3,3.7c-1.4,0.6-3.1,0-3.7-1.4
		C44.4,56.1,45,54.4,46.4,53.8z"/>
</g>
<g>
	<path class="st0" d="M7.9,39.4c0.6,0.5,0.7,1.3,0.4,1.7c-0.4,0.4-1.2,0.4-1.7-0.2c-0.6-0.5-0.7-1.3-0.4-1.7
		C6.5,38.8,7.3,38.9,7.9,39.4z"/>
	<path class="st0" d="M13.2,41.9c0.7,0.6,0.8,1.6,0.3,2.1C13,44.6,12,44.6,11.3,44c-0.7-0.6-0.8-1.6-0.3-2.1
		C11.6,41.3,12.5,41.3,13.2,41.9z"/>
	<path class="st0" d="M18.8,44.3c0.6,0.8,0.6,1.9-0.1,2.4c-0.7,0.5-1.7,0.3-2.3-0.5c-0.6-0.8-0.6-1.9,0.1-2.4
		C17.2,43.3,18.2,43.5,18.8,44.3z"/>
	<path class="st0" d="M24.7,46c0.8,0.9,0.8,2.1,0,2.8c-0.7,0.7-2,0.5-2.7-0.4c-0.8-0.9-0.8-2.1,0-2.8C22.7,44.9,23.9,45.1,24.7,46z"
		/>
	<path class="st0" d="M31,47c1,0.9,1.1,2.3,0.3,3.2c-0.8,0.9-2.3,0.9-3.2,0.1c-1-0.9-1.1-2.3-0.3-3.2C28.6,46.1,30.1,46.1,31,47z"/>
	<path class="st0" d="M37.6,47.9c1.1,1,1.2,2.5,0.3,3.5c-0.9,1-2.5,1-3.5,0.1c-1.1-1-1.2-2.5-0.3-3.5C35,47,36.5,47,37.6,47.9z"/>
	<path class="st0" d="M44.8,48c1.1,1,1.2,2.8,0.1,4c-1.1,1.2-2.8,1.2-3.9,0.2c-1.1-1-1.2-2.8-0.1-4C41.9,47,43.7,46.9,44.8,48z"/>
</g>
</svg>
