<?xml version="1.0" encoding="utf-8"?>
<!-- Generator: Adobe Illustrator 23.0.1, SVG Export Plug-In . SVG Version: 6.00 Build 0)  -->
<svg version="1.1" id="Layer_1" xmlns="http://www.w3.org/2000/svg" xmlns:xlink="http://www.w3.org/1999/xlink" x="0px" y="0px"
	 viewBox="0 0 496.8 98.9" style="enable-background:new 0 0 496.8 98.9;" xml:space="preserve">
<style type="text/css">
	.st0{fill:#FFFFFF;}
</style>
<g>
	<g>
		<polygon class="st0" points="296.9,2 304,2 304,19.1 306.7,19.1 306.7,2 313.8,2 313.8,-0.6 296.9,-0.6 		"/>
		<polygon class="st0" points="328.2,7.6 318.1,7.6 318.1,-0.6 315.4,-0.6 315.4,19.1 318.1,19.1 318.1,10.2 328.2,10.2 328.2,19.1 
			330.9,19.1 330.9,-0.6 328.2,-0.6 		"/>
		<polygon class="st0" points="337.9,16.5 337.9,10.2 345.4,10.2 345.4,7.6 337.9,7.6 337.9,2.1 347.6,2.1 347.6,-0.6 335.2,-0.6 
			335.2,19.1 348.3,19.1 348.3,16.5 		"/>
	</g>
	<g>
		<path class="st0" d="M319.9,37.4h-22.7v-14h61.2v14h-22.6v56h-16V37.4z"/>
		<path class="st0" d="M361.4,23.4h15.8v70h-15.8V23.4z"/>
		<path class="st0" d="M380.2,23.4h26.5c5.4,0,10.4,0.7,15,2.1c4.6,1.4,8.5,3.5,11.9,6.4c3.3,2.9,5.9,6.5,7.8,11
			c1.9,4.5,2.8,9.8,2.8,15.8c0,5.8-0.9,10.9-2.8,15.2c-1.9,4.3-4.5,7.9-7.8,10.8c-3.3,2.9-7.3,5.1-11.9,6.5c-4.6,1.4-9.6,2.2-15,2.2
			h-26.3V23.4z M405.7,79.4c7,0,12.4-1.8,16.2-5.5c3.8-3.7,5.7-8.7,5.7-15.2c0-3.2-0.4-6.1-1.3-8.8c-0.9-2.6-2.2-4.9-4-6.7
			c-1.8-1.9-4-3.3-6.8-4.3c-2.7-1-6-1.5-9.8-1.5h-9.7v42H405.7z"/>
		<path class="st0" d="M446.6,23.4h47.9v13.9h-32v13.6h24.9v13.4h-24.9v15.1h34.3v14h-50.2V23.4z"/>
	</g>
	<g>
		<path class="st0" d="M153.6,11.6c0.1-1.4-3.7-2.3-5.5-2.2c-7.2,0.3-22.1,42.1-24.1,48.4l-1,0c0-1.8-0.5-7,0.1-13.6
			c0.2-2.7,1.7-16.2,4.4-25.6c0.2-1.9-6.5-3.2-8.6-3.1c-1.9,0.1-3,1-3.4,2c0,0-2.2,15.7-3.1,26.8c-0.1,1.2-0.2,2.4-0.2,3.5
			c0,0.2,0,0.3,0,0.3c-0.6,7-13.9,24.5-24.6,24.9c-7.1,0.2-9.2-3.4-8.8-8.4c0.7-8.6,3.7-14.3,3.7-14.3s1.7,4.4,7.6,4.2
			c10.9-0.4,16.9-12.9,18-26.5c0.8-9.8-5-12.8-10.2-12.6c-12.2,0.4-26,28.2-27.6,45.9c-0.2,2.2-0.1,4.3,0.3,6.1
			c-1.4-1.1-2.8-2.3-4-3.4C63.2,61,54,51.2,48.3,46c16.4-2.5,27.4-10.5,28.5-23.3c1-11.9-14-25.9-36.2-22.2
			C-16.8,10.2,3.5,60.3,3.5,60.3c0.1,1.6,8.5,2.2,9.8,2.2c1.1,0.1,1.3-0.9,1.3-1.6c-0.1-4.7-4.8-20.3-0.3-34.9
			C17.5,15.4,27,11.7,33.7,9.1C28,26.6,13.9,79.5,10,96.6c0.6,0.7,6.2,2.3,9.1,2.2c2.2-0.1,3.8-2.8,4.8-6.4
			c0.8-3.2,9.8-45.7,9.8-45.7s28.1,27.5,32.1,31.7c2.5,2.6,11.4,2.8,17.8,2.4c1.8,0.5,3.8,0.6,5.8,0.6c12-0.4,19.9-10.1,23.3-18.8
			c0.3,3.4,0.5,6.1,0.5,7.7c-0.3,5.2,3.7,8.7,11.1,8.4c2.6-0.1,4-1.6,4-1.6c1.5-17.8,11.9-40.7,20.7-57.9
			C149.9,17.4,153.5,12.7,153.6,11.6z M95.3,23.2c1-1.5,1.7-2,2.2-2c0.7,0,1.6,0.5,1.2,4.9c-0.8,9.8-6,21.9-10.9,22.1
			c-2.8,0.1-3.2-2.5-3.2-2.5C86.9,37.9,91.5,29.1,95.3,23.2z M45.2,6.7c0.8-0.1,1.5-0.2,2.5-0.2c11.5-0.4,19.3,4.8,18.6,13.1
			c-1.2,13.7-14.3,19.9-30.7,20.3C38.9,27.7,42.6,15.2,45.2,6.7z"/>
		<path class="st0" d="M228.7,29.8l-0.1-0.4c1-0.9,11.9-5.5,15.5-5.7c8.6-3.3-2.7,8.1-1.4,8.1c3.5-0.1,17.7-11.6,18-15.7
			c0.2-1.9-2.8-4.6-4.2-4.5c-2.1,0.1-36.5,10.5-37.5,15c-0.5,2.4,0.3,5.5,2.1,7.3c-1.3,1.9-3.5,4.2-6.8,4.3c-2.2,0.1-4-1.6-3.9-3
			c0.7-7.8,7.2-14.2,7.5-18.2c0.2-2.1-1.2-3.1-4.1-3.6c-4-0.6-7.6,0.4-8.8,3c-2.4,5.4-6,15-10.2,22L194,38c1-6.3,3.4-14.2,4.3-20
			c0,0-4.1-2.3-7.7-2.2c-4.7,0.2-6,10.4-7.3,20.9c-0.6,4.2-1.1,7.7-1.6,10.8c-0.6,7-14.1,22.7-24.7,23.1c-7.1,0.2-9.2-3.4-8.8-8.4
			c0.7-8.6,3.7-14.3,3.7-14.3s1.7,4.4,7.6,4.2c10.9-0.4,16.9-12.9,18-26.5c0.8-9.8-5-12.8-10.2-12.6c-12.2,0.4-26,28.2-27.6,45.9
			c-1.1,13.3,8.2,20.5,18.8,20.1c8.7-0.3,15.3-5.5,19.5-11.6c0.9,2.2,8.7,4.4,11.8,2.9c1.8-17.4,9.5-29.9,12.5-35.7
			c0.2,4.7,1.9,8.7,10,8.4c6.1-0.2,10.4-4.7,12-8.3c8.7,1.5,18.9,8.6,18,18.5c-0.6,7.2-5.2,12.3-13.9,12.6c-8,0.3-9.4-4.9-9.3-5.8
			c0.1-1,6.8-9.6,7.1-13c0.1-1-4-3.8-5.9-3.7c-5,0.2-9,8.7-9.4,12.6c-0.7,8.4,9.6,18,21.3,17.6c9.6-0.3,18.4-5.2,19.5-17.4
			C253.4,37.6,228.7,29.8,228.7,29.8z M164.7,20.8c1-1.5,1.7-2,2.2-2c0.7,0,1.6,0.5,1.2,4.9c-0.8,9.8-6,21.9-10.9,22.1
			c-2.8,0.1-3.2-2.5-3.2-2.5C156.3,35.5,160.9,26.6,164.7,20.8z"/>
		<path class="st0" d="M293.6,44.4c-1.9,0.1-2,1.2-2,1.2c-0.6,7-10.3,20.6-21,21c-7.1,0.2-9.2-3.4-8.8-8.4
			c0.7-8.6,3.7-14.3,3.7-14.3s1.7,4.4,7.6,4.2c10.9-0.4,16.9-12.9,18-26.5c0.8-9.8-5-12.8-10.2-12.6c-12.2,0.4-26,28.2-27.6,45.9
			c-1.1,13.3,8.2,20.5,18.8,20.1c15.4-0.5,24.2-16.4,25-25.7C297.4,46.4,295.8,44.4,293.6,44.4z M278.1,16.8c1-1.5,1.7-2,2.2-2
			c0.7,0,1.6,0.5,1.2,4.9c-0.8,9.8-6,21.9-10.9,22.1c-2.8,0.1-3.2-2.5-3.2-2.5C269.7,31.5,274.3,22.6,278.1,16.8z"/>
	</g>
</g>
</svg>
