<?xml version="1.0" encoding="utf-8"?>
<!-- Generator: Adobe Illustrator 23.0.1, SVG Export Plug-In . SVG Version: 6.00 Build 0)  -->
<svg version="1.1" id="Layer_1" xmlns="http://www.w3.org/2000/svg" xmlns:xlink="http://www.w3.org/1999/xlink" x="0px" y="0px"
	 viewBox="0 0 703.4 161.2" style="enable-background:new 0 0 703.4 161.2;" xml:space="preserve">
<style type="text/css">
	.st0{fill:#0C2C65;}
	.st1{fill:#007BA6;}
	.st2{fill:#007BA6;stroke:#A22685;stroke-width:1.4173;stroke-miterlimit:10;}
	.st3{fill:#004587;}
	.st4{fill:#A22685;}
	.st5{fill:#2EB3C9;}
	.st6{fill:#F2DEB8;}
</style>
<g>
	<path class="st0" d="M34.1,60.1c5.1,0.6,7.7,3,7.7,7.3c0,2.9-1.6,6.5-4.9,10.8v-0.5c1.9,2.1,2.7,3.1,2.4,3.1v-0.7l1.4,0.7
		c0.1,0,3.3-1.3,9.5-3.9c3.2-1.1,7.3-2.1,12.2-3.1c1.4,0.4,2.1,1.3,2.1,2.9c-0.9,1.6-2.4,2.4-4.5,2.4c-7.1,1.7-12.5,3.7-16.2,6.3
		l2.2,7l0.4,2h0.2l-0.3-0.6l-0.1,0.3l0.1,0.1c-0.2,1.5-0.1,1.9,0.1,1.3h-0.1c-1.4,5.6-3.3,9.1-5.6,10.5c-1.5,1.7-4.4,2.9-8.8,3.8
		l-1.4,0.7v-0.1c0.6-0.3,0.5-0.4-0.4-0.3c-1.7-0.2-2.3-0.2-1.9,0.1V110c-3.5-1.5-5.3-3.7-5.3-6.6c0-5.3,4-11.4,12-18.3
		c0.5-0.4,0.7-0.7,0.7-0.9V84c0-0.3-1.4-1.8-4.2-4.7c-3.2-3.7-4.9-6.8-5.3-9.1c0-0.8,0-1.1,0.1-1.1c0,0.7,0,0.9-0.1,0.7
		c0-2.1,0.7-4.2,2.1-6.4C30,61.2,32,60.1,34.1,60.1z M28.2,102.9v1.1c0.2,1.1,0.8,1.7,1.7,1.7c2.9,0,5.9-1.6,9.1-4.8
		c1.2-1.8,1.9-4.1,1.9-7.2c-0.5-3.5-1.2-5.2-2-5.2c-2.4,1.2-5.3,4.1-8.7,8.7C28.9,98.9,28.2,100.8,28.2,102.9z M31.3,68.7V69
		c0,1.6,0.9,3.5,2.8,5.6l-0.1,0h-0.6c2.3-3.2,3.4-5.7,3.4-7.5c0-1-0.9-1.7-2.7-2C32.9,65.1,32,66.3,31.3,68.7z"/>
	<path class="st0" d="M76.7,63.4l2,0.1c2.9,0,4.9,1.3,6.1,3.8c0.3,0.7,0.9,3.5,2,8.4c1.9,4.3,5.1,6.5,9.8,6.5
		c4.5,0,9.4-2.6,14.8-7.8c1-0.2,1.8-0.4,2.3-0.4c1.2,0.5,1.7,1.2,1.7,2.1c0,1.3-1.2,2.7-3.6,4.4c-3.2,2.8-7.3,4.8-12.3,6.1
		c-1.1,0.1-1.9,0.1-2.5,0.1h-0.6c-6.6,0-11.4-3-14.3-9l-0.3-0.2c0.1,0-0.7,1.5-2.4,4.5c-3.7,5-7.8,7.5-12.2,7.5H67
		c-3.4,0-5.9-1.9-7.7-5.6c-0.3-1.1-0.5-2-0.5-2.8c0.1-4.3,2.3-8.6,6.4-13C68.5,65.1,72.3,63.5,76.7,63.4z M63.7,80.5
		c0,2.5,1.1,4.1,3.2,4.7h0.7c3.5,0,7.1-3.8,10.7-11.3c1-2.5,1.6-4.2,1.6-5.1v-0.9c0,0.1-0.8,0.1-2.3,0c-5.2-0.1-9.2,2.5-12.2,7.7
		C64.2,77.3,63.7,78.9,63.7,80.5z"/>
	<path class="st0" d="M140.5,15.1h0.5c1.5,0.7,2.2,2,2.2,3.9v0.1c0,5.3-3.2,15.6-9.7,31.2c-2.5,6.1-7.3,14.6-14.5,25.4
		c-1.4,1.4-2,2.7-2,3.8V80c0,1.4,1,3.7,2.9,6.7c2.1,1.9,4.2,2.9,6.4,2.9h1.9c2.6-0.1,6.4-1.6,11.3-4.3c4.4-3.9,7.4-6.8,9.2-8.7
		c1.2-1.5,2.3-2.3,3.2-2.3h0.5c1.2,0.5,1.7,1.3,1.7,2.3c-0.3,1.8-4,5.5-11,11.3c-5.5,4-11,6-16.5,6c-7.4,0-12.3-4.1-14.8-12.2
		c-0.3-1.5-0.5-2.7-0.6-3.7c0-5.7,1.2-11.6,3.7-17.5c0-0.9,0.8-3.1,2.4-6.5c3.4-10,7.1-18.3,11-25c2.9-4.9,4.5-7.4,4.7-7.4
		c0.6-0.7,1.3-1.9,2.2-3.6C136.8,16.1,138.6,15.1,140.5,15.1z M116.8,70.4c0.1,0.1,0.1,0.4,0.1,0.8l-0.1,0.2c0,0-0.1,0-0.4,0h0
		c0.8-0.8,2.9-4.3,6.4-10.4c3.5-5.9,7.4-14.7,11.8-26.5c1.9-6.4,2.9-10.3,2.9-11.7c-0.1-0.9-0.1-1.1-0.1-0.7h0.8
		c-0.8,0-3.4,4.3-7.8,12.8c-3.5,6.7-7.4,16.1-11.6,28.3C118,65.7,117.3,68.1,116.8,70.4z"/>
	<path class="st0" d="M179.5,15.1h0.5c1.5,0.7,2.2,2,2.2,3.9v0.1c0,5.3-3.2,15.6-9.7,31.2c-2.5,6.1-7.3,14.6-14.5,25.4
		c-1.4,1.4-2,2.7-2,3.8V80c0,1.4,1,3.7,2.9,6.7c2.1,1.9,4.2,2.9,6.4,2.9h1.9c2.6-0.1,6.4-1.6,11.3-4.3c4.4-3.9,7.4-6.8,9.2-8.7
		c1.2-1.5,2.3-2.3,3.2-2.3h0.5c1.2,0.5,1.7,1.3,1.7,2.3c-0.3,1.8-4,5.5-11,11.3c-5.5,4-11,6-16.5,6c-7.4,0-12.3-4.1-14.8-12.2
		c-0.3-1.5-0.5-2.7-0.6-3.7c0-5.7,1.2-11.6,3.7-17.5c0-0.9,0.8-3.1,2.4-6.5c3.4-10,7.1-18.3,11-25c2.9-4.9,4.5-7.4,4.7-7.4
		c0.6-0.7,1.3-1.9,2.2-3.6C175.7,16.1,177.5,15.1,179.5,15.1z M155.7,70.4c0.1,0.1,0.1,0.4,0.1,0.8l-0.1,0.2c0,0-0.1,0-0.4,0h0
		c0.8-0.8,2.9-4.3,6.4-10.4c3.5-5.9,7.4-14.7,11.8-26.5c1.9-6.4,2.9-10.3,2.9-11.7c-0.1-0.9-0.1-1.1-0.1-0.7h0.8
		c-0.8,0-3.4,4.3-7.8,12.8c-3.5,6.7-7.4,16.1-11.6,28.3C156.9,65.7,156.2,68.1,155.7,70.4z"/>
	<path class="st0" d="M191.5,72.3c1,0,1.7,0.5,2.1,1.6c0,0.7-1.1,4.7-3.3,12.2c0-0.6,0.1-0.9,0.2-0.9c-0.2,2.1-0.3,3.2-0.4,3.4
		c0,1.9,0.5,3,1.6,3.5c0.3,0,0.5,0,0.6,0.1c1.5-0.3,4.1-3.3,7.6-8.8c1.3-2.5,2.6-3.7,3.8-3.7h0.4c1.5,0.2,2.2,1,2.2,2.3v0.2
		c-0.9,5.1-1.3,8.6-1.3,10.6v2.5c0,0.6,0.1,1,0.2,1.3h-0.4c0.3,0,1.9-1.7,4.7-5c7.6-8.9,13.2-14.5,16.9-16.7
		c0.7-0.1,1.3-0.2,1.8-0.2c1.2,0.3,1.8,0.9,1.8,1.8c0,1.1-1.1,2.3-3.3,3.7c-3.5,2.8-7.4,6.8-11.7,11.8c-6.3,7.1-9.4,11.5-9.4,13.2
		c0,2.5,0.2,6.8,0.7,13c0,4.4-0.8,11.5-2.4,21.2c-1.6,5.6-3.3,10.2-5.1,13.6c-2,3.2-4.3,5.4-6.8,6.7c-1.9,1-3.6,1.4-5,1.4h-0.9
		c-4.4,0-6.6-3.2-6.6-9.5c0.1-2.4,0.3-4.1,0.6-5c0,0.6-0.1,0.9-0.2,0.9c0.4-4.5,2.9-11.9,7.5-22.2c3.7-7.4,7.8-14.5,12.3-21.4
		l0.4-1.8c-0.2-4.6-0.3-7.6-0.3-8.8c0-0.1,0-0.7,0.1-1.5c0-0.4,0-0.6,0.1-0.6c-0.1,0-1.5,1.3-4.2,3.9c-1.6,0.9-3.2,1.4-4.8,1.4
		c-2.9,0-4.7-2-5.7-6.1v-1.9c0-3.1,1.4-8.2,4.3-15.2C190.3,72.8,190.9,72.5,191.5,72.3z M184.8,151.7c0.3,3.5,0.9,5.2,1.9,5.2h0.7
		c5.4,0,9.6-7.5,12.5-22.4c0,0.6-0.1,0.9-0.3,0.9l1.2-8c0,0.6-0.1,0.9-0.3,0.9c0.6-4.4,0.9-7.5,0.9-9.5c0-5.2-0.1-7.8-0.3-7.8
		c-0.1,0-0.8,1.1-2,3.4c-4.6,7.5-8.5,15.3-11.5,23.4C185.7,143,184.8,147.6,184.8,151.7z"/>
	<path class="st0" d="M324.5,59.4h0.4c1.5,0,2.3,0.9,2.4,2.8c-1.4,6.5-2.1,10.1-2.1,10.6v0h-0.8c0.4,0,1.4-1,3-3
		c2.6-2,5.2-3.1,7.6-3.1c2.6,0,5.2,1.4,7.8,4.3h-0.3c0.2,0,1.9-0.8,5-2.3c1.8-0.5,3.5-0.8,4.9-0.8h0.9c5.5,0,9.1,2.2,11.1,6.5
		c1.2,3.3,1.9,6.3,1.9,8.9v1.6c0,0.9-0.3,3.9-1,9.3c0,1.9,0.6,2.9,1.7,3.3c2.6,0,5.5-2.2,8.7-6.7c1.4-2.8,3.7-8.1,6.9-16
		c0.9-0.6,1.7-0.9,2.5-0.9c1.6,0.4,2.4,1.2,2.4,2.5c-0.2,1-1.5,3.8-3.8,8.5c-2.4,7.3-6.1,12.3-11.1,15.1c-1.9,1-3.6,1.4-5,1.4h-0.9
		c-3.1,0-5.1-1.5-6.1-4.4c-0.3-1.4-0.5-2.4-0.5-3.1v-0.6c0-0.7,0.3-3.4,0.9-8c0.1-0.3,0.1-0.7,0.1-1c0-5.1-1.3-8.9-3.8-11.4
		c-1.2-0.8-2.6-1.1-4-1.1c-3.3,0-6,1.4-8,4.2l-0.1,0.7c0.9,4.6,1.3,7.6,1.3,9c0,3.9-1.7,7.1-5.2,9.4c-0.8,0.4-1.5,0.6-1.9,0.6h-0.1
		c-2.1,0-3.3-1.6-3.6-4.9v-1.2c0-1.9,1-6.3,3-13.2v-0.3c0-2.4-1.1-4.1-3.2-5.1c0,0-0.2,0-0.4,0c-3.1,0-7.3,5.6-12.8,16.9
		c-1.8,4.1-3.3,6.2-4.6,6.2h-0.6c-1.5-0.4-2.3-1.2-2.3-2.4c2.2-7.2,4.2-15.5,6.1-24.9C322.2,61.8,323.4,59.4,324.5,59.4z
		 M342.2,83.4c-1.2,2.2-1.9,4.3-1.9,6.3c0,0.3-0.1,0.4-0.2,0.4c0.9-0.6,1.3-2.1,1.3-4.5v-1.7C341.4,83.6,341.7,83.4,342.2,83.4z"/>
	<path class="st0" d="M399.2,63.4l2,0.1c2.9,0,4.9,1.3,6.1,3.8c0.3,0.7,0.9,3.5,2,8.4c1.9,4.3,5.1,6.5,9.8,6.5
		c4.5,0,9.4-2.6,14.8-7.8c1-0.2,1.8-0.4,2.3-0.4c1.2,0.5,1.7,1.2,1.7,2.1c0,1.3-1.2,2.7-3.6,4.4c-3.2,2.8-7.3,4.8-12.3,6.1
		c-1.1,0.1-1.9,0.1-2.5,0.1h-0.6c-6.6,0-11.4-3-14.3-9l-0.3-0.2c0.1,0-0.7,1.5-2.4,4.5c-3.7,5-7.8,7.5-12.2,7.5h-0.1
		c-3.4,0-5.9-1.9-7.7-5.6c-0.3-1.1-0.5-2-0.5-2.8c0.1-4.3,2.3-8.6,6.4-13C391,65.1,394.8,63.5,399.2,63.4z M386.2,80.5
		c0,2.5,1.1,4.1,3.2,4.7h0.7c3.5,0,7.1-3.8,10.7-11.3c1-2.5,1.6-4.2,1.6-5.1v-0.9c0,0.1-0.8,0.1-2.3,0c-5.2-0.1-9.2,2.5-12.2,7.7
		C386.8,77.3,386.2,78.9,386.2,80.5z"/>
	<path class="st0" d="M454.3,64.4c1.5,0.2,2.2,1.1,2.2,2.4c-0.4,1-1.8,3.1-4,6.3c-3.3,7.5-4.9,13.1-4.9,16.8c0.2,4.2,1.5,6.9,3.8,8
		c0.4,0.2,0.7,0.3,1,0.3h0.6c2.5,0,5.7-1.6,9.7-4.8c2.9-2.9,6.4-7.6,10.5-14c1.5-3.4,3-5.1,4.6-5.1c1.5,0.4,2.3,1.2,2.3,2.4v0.4
		c-0.4,1.4-2.9,5.5-7.5,12.2c-2.3,3.9-6.2,7.7-11.7,11.4c-1.9,1.1-4.6,1.8-8,2.2h-0.2c-3.8,0-6.8-2.3-9.3-7
		c-0.6-1.2-0.9-3.1-0.9-5.6c0-4.7,1.2-9.7,3.6-15l1-3.1v-0.7c0,0.4,0.2,0.6,0.6,0.6h-0.3c-1.1,0-3.2,0.7-6.3,2
		c-1.3,0.5-2.9,1.5-4.7,3.1c-1.9-0.2-3-1.1-3.4-2.6l1.4-2.2c0.5-0.6,1.9-1.4,4.2-2.3c3.3-1,8-3,14.3-6H454.3z"/>
	<path class="st0" d="M478.1,60.1c5.1,0.6,7.7,3,7.7,7.3c0,2.9-1.6,6.5-4.9,10.8v-0.5c1.9,2.1,2.7,3.1,2.4,3.1v-0.7l1.4,0.7
		c0.1,0,3.3-1.3,9.5-3.9c3.2-1.1,7.3-2.1,12.2-3.1c1.4,0.4,2.1,1.3,2.1,2.9c-0.9,1.6-2.4,2.4-4.5,2.4c-7.1,1.7-12.5,3.7-16.2,6.3
		l2.2,7l0.4,2h0.2l-0.3-0.6l-0.1,0.3l0.1,0.1c-0.2,1.5-0.1,1.9,0.1,1.3h-0.1c-1.4,5.6-3.3,9.1-5.6,10.5c-1.5,1.7-4.4,2.9-8.8,3.8
		l-1.4,0.7v-0.1c0.6-0.3,0.5-0.4-0.4-0.3c-1.7-0.2-2.3-0.2-1.9,0.1V110c-3.5-1.5-5.3-3.7-5.3-6.6c0-5.3,4-11.4,12-18.3
		c0.5-0.4,0.7-0.7,0.7-0.9V84c0-0.3-1.4-1.8-4.2-4.7c-3.2-3.7-4.9-6.8-5.3-9.1c0-0.8,0-1.1,0.1-1.1c0,0.7,0,0.9-0.1,0.7
		c0-2.1,0.7-4.2,2.1-6.4C474,61.2,476,60.1,478.1,60.1z M472.2,102.9v1.1c0.2,1.1,0.8,1.7,1.7,1.7c2.9,0,5.9-1.6,9.1-4.8
		c1.2-1.8,1.9-4.1,1.9-7.2c-0.5-3.5-1.2-5.2-2-5.2c-2.4,1.2-5.3,4.1-8.7,8.7C472.9,98.9,472.2,100.8,472.2,102.9z M475.3,68.7V69
		c0,1.6,0.9,3.5,2.8,5.6l-0.1,0h-0.6c2.3-3.2,3.4-5.7,3.4-7.5c0-1-0.9-1.7-2.7-2C476.9,65.1,476,66.3,475.3,68.7z"/>
	<path class="st0" d="M536.1,22.4h0.3c2.2,0.2,3.3,1.3,3.3,3.1c0,4.9-3.8,13.8-11.2,26.5c-2.5,4.1-6.5,9.5-12.1,16.4
		c-5.5,6.6-8.2,10.4-8.2,11.3c-0.5,1.3-0.9,3.9-1.2,7.8c0.1,0.3,0,0.4-0.3,0.4h-0.1c0.9-0.9,2.1-2.9,3.7-6.1c2.5-3,5.1-4.6,7.7-4.6
		c3.4,0,6.3,3.1,8.5,9.2c1.6,3.5,3.1,5.6,4.7,6.3c0.5,0.2,1.1,0.4,1.7,0.4h0.9c2.3,0,4.9-1.5,7.9-4.4c2.1-2.9,3.7-5.9,4.8-9
		c0.9-3.8,2.2-5.7,3.7-5.7c1.6,0.1,2.4,0.9,2.4,2.4c-1,4.8-3.4,9.9-7.3,15.4c-3.4,3.9-7.5,5.8-12.4,5.8c-5.3,0-9.2-3.6-11.8-10.9
		c-1.7-3.1-2.7-4.6-3.3-4.6c-0.2-0.1-0.3-0.1-0.3-0.1h-0.1c-2.3,0-5.1,4.2-8.1,12.7l-1.4,7.5c-0.6,0.5-1.3,0.9-2,1.2
		c-1.9,0-3-1.8-3.3-5.4c-0.3-1.9-0.5-3.7-0.6-5.4c0-9.2,1.3-16.2,3.8-21.2c8.2-19.6,14.4-32,18.5-37.3c3.1-4.5,5.6-7.7,7.4-9.4
		C533.3,23.1,534.8,22.4,536.1,22.4z M513.9,65.4c0-0.4-0.3-0.6-0.6-0.6c0.5,0,2.5-2.6,5.9-7.8c4.2-5.4,8.1-11.8,11.6-19.2
		c1.7-3.5,2.9-6.7,3.6-9.6v-0.1c0,0.1,0,0.1-0.1,0.1c-0.2,0-1.9,2.2-5,6.5c-5.5,8.1-8.3,12.7-8.3,13.8c-3.5,7.4-5.9,12.9-7.1,16.4
		V65.4z"/>
	<path class="st0" d="M564.1,63.4l2,0.1c2.9,0,4.9,1.3,6.1,3.8c0.3,0.7,0.9,3.5,2,8.4c1.9,4.3,5.1,6.5,9.8,6.5
		c4.5,0,9.4-2.6,14.8-7.8c1-0.2,1.8-0.4,2.3-0.4c1.2,0.5,1.7,1.2,1.7,2.1c0,1.3-1.2,2.7-3.6,4.4c-3.2,2.8-7.3,4.8-12.3,6.1
		c-1.1,0.1-1.9,0.1-2.5,0.1h-0.6c-6.6,0-11.4-3-14.3-9l-0.3-0.2c0.1,0-0.7,1.5-2.4,4.5c-3.7,5-7.8,7.5-12.2,7.5h-0.1
		c-3.4,0-5.9-1.9-7.7-5.6c-0.3-1.1-0.5-2-0.5-2.8c0.1-4.3,2.3-8.6,6.4-13C555.9,65.1,559.7,63.5,564.1,63.4z M551.1,80.5
		c0,2.5,1.1,4.1,3.2,4.7h0.7c3.5,0,7.1-3.8,10.7-11.3c1-2.5,1.6-4.2,1.6-5.1v-0.9c0,0.1-0.8,0.1-2.3,0c-5.2-0.1-9.2,2.5-12.2,7.7
		C551.6,77.3,551.1,78.9,551.1,80.5z"/>
	<path class="st0" d="M627.9,15.1h0.5c1.5,0.7,2.2,2,2.2,3.9v0.1c0,5.3-3.2,15.6-9.7,31.2c-2.5,6.1-7.3,14.6-14.5,25.4
		c-1.4,1.4-2,2.7-2,3.8V80c0,1.4,1,3.7,2.9,6.7c2.1,1.9,4.2,2.9,6.4,2.9h1.9c2.6-0.1,6.4-1.6,11.3-4.3c4.4-3.9,7.4-6.8,9.2-8.7
		c1.2-1.5,2.3-2.3,3.2-2.3h0.5c1.2,0.5,1.7,1.3,1.7,2.3c-0.3,1.8-4,5.5-11,11.3c-5.5,4-11,6-16.5,6c-7.4,0-12.3-4.1-14.8-12.2
		c-0.3-1.5-0.5-2.7-0.6-3.7c0-5.7,1.2-11.6,3.7-17.5c0-0.9,0.8-3.1,2.4-6.5c3.4-10,7.1-18.3,11-25c2.9-4.9,4.5-7.4,4.7-7.4
		c0.6-0.7,1.3-1.9,2.2-3.6C624.2,16.1,626,15.1,627.9,15.1z M604.2,70.4c0.1,0.1,0.1,0.4,0.1,0.8l-0.1,0.2c0,0-0.1,0-0.4,0h0
		c0.8-0.8,2.9-4.3,6.4-10.4c3.5-5.9,7.4-14.7,11.8-26.5c1.9-6.4,2.9-10.3,2.9-11.7c-0.1-0.9-0.1-1.1-0.1-0.7h0.8
		c-0.8,0-3.4,4.3-7.8,12.8c-3.5,6.7-7.4,16.1-11.6,28.3C605.4,65.7,604.7,68.1,604.2,70.4z"/>
	<path class="st0" d="M666.9,15.1h0.5c1.5,0.7,2.2,2,2.2,3.9v0.1c0,5.3-3.2,15.6-9.7,31.2c-2.5,6.1-7.3,14.6-14.5,25.4
		c-1.4,1.4-2,2.7-2,3.8V80c0,1.4,1,3.7,2.9,6.7c2.1,1.9,4.2,2.9,6.4,2.9h1.9c2.6-0.1,6.4-1.6,11.3-4.3c4.4-3.9,7.4-6.8,9.2-8.7
		c1.2-1.5,2.3-2.3,3.2-2.3h0.5c1.2,0.5,1.7,1.3,1.7,2.3c-0.3,1.8-4,5.5-11,11.3c-5.5,4-11,6-16.5,6c-7.4,0-12.3-4.1-14.8-12.2
		c-0.3-1.5-0.5-2.7-0.6-3.7c0-5.7,1.2-11.6,3.7-17.5c0-0.9,0.8-3.1,2.4-6.5c3.4-10,7.1-18.3,11-25c2.9-4.9,4.5-7.4,4.7-7.4
		c0.6-0.7,1.3-1.9,2.2-3.6C663.1,16.1,664.9,15.1,666.9,15.1z M643.1,70.4c0.1,0.1,0.1,0.4,0.1,0.8l-0.1,0.2c0,0-0.1,0-0.4,0h0
		c0.8-0.8,2.9-4.3,6.4-10.4c3.5-5.9,7.4-14.7,11.8-26.5c1.9-6.4,2.9-10.3,2.9-11.7c-0.1-0.9-0.1-1.1-0.1-0.7h0.8
		c-0.8,0-3.4,4.3-7.8,12.8c-3.5,6.7-7.4,16.1-11.6,28.3C644.3,65.7,643.6,68.1,643.1,70.4z"/>
</g>
<path class="st1" d="M701.3,0H2.1C1,0,0,0.9,0,2v124.4c0,1.1,1,2,2.1,2h304.4V127H2.1c-0.4,0-0.7-0.3-0.7-0.6V2
	c0-0.3,0.3-0.6,0.7-0.6h699.2c0.4,0,0.7,0.3,0.7,0.6v124.4c0,0.3-0.3,0.6-0.7,0.6H396.9v1.4h304.4c1.2,0,2.1-0.9,2.1-2V2
	C703.4,0.9,702.5,0,701.3,0z"/>
<path class="st2" d="M627.3,119.3"/>
<path class="st2" d="M68.8,119.3"/>
<path class="st1" d="M233.9,111.3c-0.2,0-2.1,0-2.7-1.4c-0.5-0.9-0.2-2.2,0.9-3.7c3.1-4.2,5.4-8.2,8-13.4c2.2-4.6,3.4-10,3.8-11.6
	c-2-1.1-10.3-5.9-15.8-9.5c-6.4-4.1-13.5-11.8-13.8-12.1c-0.1-0.1-1.1-1.1-1.1-2.3c0-0.6,0.2-1.2,0.7-1.7c1-1,2.6-0.6,5.7,0
	c2.8,0.6,6.5,1.3,11.8,1.6c9.6,0.5,13.3-0.4,14.4-0.8c0-1.9,0.2-8.8,3.4-18.4c3.6-11,7-16.6,7.2-16.8l0.1-0.1l0.1-0.1
	c0.2-0.1,1.7-1.1,3-0.5c0.9,0.4,1.4,1.3,1.6,2.7c0.3,2.9,1.4,11.6,4,17c2.1,4.3,4.2,8.5,4.9,9.9c1.8-0.5,7.8-1.9,18.6-1.4
	c12.8,0.6,17.6,2.2,17.8,2.3l0.1,0.1c0.2,0.1,2,1.2,1.8,2.7c-0.1,1.1-1.1,2-3,2.7c-4.8,1.8-15,8.5-22.1,15.5c0.1,0.5,0.6,1.7,1,2.9
	c2.3,6.4,7.6,21.2,7.6,33.9c0,1-0.7,1.8-1.6,2c-0.7,0.2-3.1,0.5-5.4-3.6c0,0-3.8-5.5-10-10.4c-4.7-3.7-7.2-5.2-8.1-5.8
	c-1.6,1.4-7.7,6.7-12.7,10c-5.7,3.8-19.2,9.8-19.8,10.1l-0.1,0.1H233.9z M215.6,56.5c-0.4,0-0.6,0.1-0.8,0.2
	c-0.2,0.2-0.3,0.4-0.3,0.7c0,0.6,0.5,1.2,0.7,1.3c0.1,0.1,7.3,7.9,13.5,11.9c6.3,4,16.1,9.6,16.2,9.7l0.4,0.2l-0.1,0.5
	c-0.1,0.3-1.3,6.8-4,12.5c-2.6,5.3-5,9.3-8.1,13.6c-0.7,1-1,1.8-0.8,2.2c0.2,0.4,0.9,0.5,1.3,0.6c1.5-0.7,14.1-6.4,19.4-9.9
	c5.6-3.7,12.9-10.2,12.9-10.2l0.3-0.3l0.4,0.2c0.1,0,2.4,1.2,8.8,6.1c6.4,5,10.1,10.5,10.3,10.8c1.5,2.6,3,3.3,3.9,3
	c0.4-0.1,0.6-0.4,0.6-0.7c0-12.4-5.3-27.1-7.5-33.4c-1.3-3.6-1.3-3.8-0.9-4.2c7.2-7.2,17.8-14.2,22.8-16.1c1.9-0.7,2.1-1.3,2.1-1.5
	c0-0.5-0.6-1.1-1.1-1.3c-0.6-0.2-5.5-1.7-17.3-2.2c-12.5-0.6-18.6,1.5-18.7,1.5l-0.6,0.2l-0.3-0.6c0,0-2.6-5.2-5.2-10.5
	c-2.4-5-3.5-12.4-4.2-17.5c-0.1-0.6-0.3-1.4-0.7-1.6c-0.5-0.2-1.2,0.1-1.5,0.3c-0.5,0.9-3.7,6.5-7,16.4c-3.5,10.8-3.3,18.3-3.3,18.4
	l0,0.4l-0.3,0.2c-0.3,0.2-3.3,1.9-15.6,1.2c-5.4-0.3-9.2-1.1-12-1.6C217.7,56.8,216.4,56.5,215.6,56.5z"/>
<g>
	<path class="st3" d="M258.1,28.3c-0.3,0.7-0.9,1.1-1.4,0.9c-0.5-0.2-0.7-0.9-0.4-1.6c0.3-0.7,0.9-1.1,1.4-0.9
		C258.2,26.8,258.4,27.6,258.1,28.3z"/>
	<path class="st4" d="M257.7,34c-0.3,0.8-1.1,1.3-1.8,1c-0.7-0.3-1-1.1-0.7-2c0.3-0.8,1.1-1.3,1.8-1C257.7,32.3,258,33.1,257.7,34z"
		/>
	<path class="st5" d="M257.4,39.9c-0.5,0.9-1.5,1.2-2.2,0.8c-0.7-0.4-0.8-1.4-0.3-2.3c0.5-0.9,1.5-1.2,2.2-0.8
		C257.8,38.1,257.9,39.1,257.4,39.9z"/>
	<path class="st4" d="M257.9,45.8c-0.5,1-1.6,1.5-2.5,1c-0.8-0.4-1.1-1.6-0.6-2.6c0.5-1,1.6-1.5,2.5-1
		C258.2,43.7,258.4,44.8,257.9,45.8z"/>
	<path class="st3" d="M259.2,52c-0.5,1.2-1.7,1.8-2.8,1.4c-1.1-0.4-1.6-1.7-1.2-2.9c0.5-1.2,1.7-1.8,2.8-1.4
		C259.1,49.5,259.6,50.8,259.2,52z"/>
	<path class="st4" d="M260.6,58.3c-0.5,1.3-1.9,2-3,1.5c-1.2-0.4-1.8-1.9-1.3-3.2c0.5-1.3,1.9-2,3-1.5
		C260.5,55.5,261.1,57,260.6,58.3z"/>
	<path class="st6" d="M262.9,64.9c-0.5,1.4-2.1,2.1-3.5,1.5c-1.4-0.5-2.1-2.1-1.5-3.5c0.5-1.4,2.1-2.1,3.5-1.5
		C262.8,61.9,263.5,63.5,262.9,64.9z"/>
</g>
<g>
	<path class="st0" d="M301.2,55.1c-0.7-0.1-1.3-0.6-1.2-1.1c0.1-0.5,0.7-0.9,1.4-0.8c0.7,0.1,1.3,0.6,1.2,1.1
		C302.6,54.8,302,55.2,301.2,55.1z"/>
	<path class="st4" d="M295.7,56.1c-0.8-0.1-1.5-0.8-1.4-1.5c0.1-0.7,0.8-1.2,1.7-1.1c0.9,0.1,1.5,0.8,1.4,1.5
		C297.3,55.7,296.6,56.2,295.7,56.1z"/>
	<path class="st5" d="M290,57.3c-0.9-0.3-1.5-1.2-1.3-1.9c0.2-0.8,1.2-1.2,2.1-0.9c0.9,0.3,1.5,1.2,1.3,1.9
		C291.9,57.2,290.9,57.6,290,57.3z"/>
	<path class="st4" d="M284.5,59.1c-1.1-0.3-1.8-1.2-1.6-2.2c0.2-0.9,1.3-1.5,2.4-1.2c1.1,0.3,1.8,1.2,1.6,2.2
		C286.7,58.9,285.6,59.4,284.5,59.1z"/>
	<path class="st0" d="M279,61.9c-1.2-0.2-2.1-1.2-2-2.4c0.1-1.2,1.2-2,2.5-1.8c1.2,0.2,2.1,1.2,2,2.4C281.4,61.2,280.3,62,279,61.9z
		"/>
	<path class="st4" d="M273.4,64.7c-1.3-0.2-2.3-1.3-2.2-2.6c0.1-1.3,1.4-2.1,2.7-2c1.3,0.2,2.3,1.3,2.2,2.6
		C276,64,274.8,64.9,273.4,64.7z"/>
	<path class="st6" d="M267.7,68.6c-1.4-0.2-2.5-1.6-2.3-3c0.2-1.5,1.5-2.5,3-2.3c1.4,0.2,2.5,1.6,2.3,3
		C270.5,67.8,269.2,68.8,267.7,68.6z"/>
</g>
<g>
	<path class="st3" d="M286.6,103.4c-0.1-0.7,0.3-1.4,0.8-1.4c0.5-0.1,1.1,0.5,1.1,1.2c0.1,0.7-0.3,1.4-0.8,1.4
		C287.2,104.7,286.7,104.2,286.6,103.4z"/>
	<path class="st4" d="M284.3,98.3c-0.1-0.9,0.4-1.6,1.1-1.7c0.7-0.1,1.4,0.5,1.5,1.4c0.1,0.9-0.4,1.6-1.1,1.7
		C285.1,99.8,284.4,99.2,284.3,98.3z"/>
	<path class="st5" d="M281.7,93.1c0.1-1,0.8-1.7,1.6-1.7c0.8,0,1.4,0.8,1.4,1.8c-0.1,1-0.8,1.7-1.6,1.7
		C282.3,94.9,281.7,94.1,281.7,93.1z"/>
	<path class="st4" d="M278.5,88.3c0-1.1,0.8-2,1.7-2c0.9,0,1.7,0.9,1.7,2c0,1.1-0.8,2-1.7,2C279.3,90.3,278.5,89.4,278.5,88.3z"/>
	<path class="st3" d="M274.5,83.6c-0.2-1.2,0.6-2.4,1.8-2.5c1.2-0.2,2.2,0.7,2.4,2c0.2,1.2-0.6,2.4-1.8,2.5
		C275.8,85.7,274.7,84.8,274.5,83.6z"/>
	<path class="st4" d="M270.4,78.9c-0.2-1.3,0.7-2.6,2-2.7c1.3-0.2,2.4,0.8,2.6,2.1c0.2,1.3-0.7,2.6-2,2.7
		C271.7,81.2,270.6,80.2,270.4,78.9z"/>
	<path class="st6" d="M265.2,74.3c-0.2-1.5,0.9-2.8,2.4-3c1.5-0.2,2.8,0.9,3,2.3c0.2,1.4-0.9,2.8-2.4,2.9
		C266.7,76.8,265.4,75.8,265.2,74.3z"/>
</g>
<g>
	<path class="st3" d="M237.2,104.9c0.7-0.3,1.5-0.2,1.7,0.3c0.2,0.5-0.1,1.2-0.8,1.5c-0.7,0.3-1.5,0.2-1.7-0.3
		C236.2,105.9,236.5,105.2,237.2,104.9z"/>
	<path class="st4" d="M241.6,101c0.8-0.4,1.7-0.1,2.1,0.6c0.3,0.7-0.1,1.6-0.9,1.9c-0.8,0.4-1.7,0.1-2.1-0.6
		C240.4,102.2,240.8,101.4,241.6,101z"/>
	<path class="st5" d="M246,96.7c1-0.3,2,0.2,2.2,1c0.2,0.8-0.4,1.7-1.4,1.9c-1,0.3-2-0.2-2.2-1C244.4,97.9,245,97,246,96.7z"/>
	<path class="st4" d="M249.8,92c1.1-0.4,2.3,0.1,2.6,1c0.3,0.9-0.3,2-1.4,2.4c-1.1,0.4-2.3-0.1-2.6-1
		C248.1,93.4,248.7,92.4,249.8,92z"/>
	<path class="st3" d="M253.2,86.5c1.2-0.6,2.6-0.1,3.1,1c0.5,1.1,0,2.4-1.2,3c-1.2,0.6-2.6,0.1-3.1-1
		C251.5,88.4,252,87.1,253.2,86.5z"/>
	<path class="st4" d="M256.6,80.8c1.3-0.6,2.8-0.1,3.4,1.1c0.6,1.2,0,2.7-1.3,3.3c-1.3,0.6-2.8,0.1-3.4-1.1
		C254.7,82.9,255.3,81.4,256.6,80.8z"/>
	<path class="st6" d="M259.5,74.2c1.4-0.6,3.1,0,3.7,1.4c0.7,1.4,0.1,3.1-1.3,3.7c-1.4,0.6-3.1,0-3.7-1.4
		C257.5,76.5,258.1,74.8,259.5,74.2z"/>
</g>
<g>
	<path class="st0" d="M221,59.8c0.6,0.5,0.7,1.3,0.4,1.7c-0.4,0.4-1.2,0.4-1.7-0.2c-0.6-0.5-0.7-1.3-0.4-1.7
		C219.7,59.2,220.4,59.3,221,59.8z"/>
	<path class="st4" d="M226.3,62.3c0.7,0.6,0.8,1.6,0.3,2.1c-0.5,0.6-1.5,0.5-2.1-0.1c-0.7-0.6-0.8-1.6-0.3-2.1
		C224.7,61.7,225.6,61.7,226.3,62.3z"/>
	<path class="st5" d="M231.9,64.7c0.6,0.8,0.6,1.9-0.1,2.4c-0.7,0.5-1.7,0.3-2.3-0.5c-0.6-0.8-0.6-1.9,0.1-2.4
		C230.3,63.7,231.3,63.9,231.9,64.7z"/>
	<path class="st4" d="M237.8,66.4c0.8,0.9,0.8,2.1,0,2.8c-0.7,0.7-2,0.5-2.7-0.4c-0.8-0.9-0.8-2.1,0-2.8
		C235.8,65.3,237,65.5,237.8,66.4z"/>
	<path class="st0" d="M244.2,67.4c1,0.9,1.1,2.3,0.3,3.2c-0.8,0.9-2.3,0.9-3.2,0.1c-1-0.9-1.1-2.3-0.3-3.2
		C241.7,66.5,243.2,66.5,244.2,67.4z"/>
	<path class="st4" d="M250.7,68.3c1.1,1,1.2,2.5,0.3,3.5c-0.9,1-2.5,1-3.5,0.1c-1.1-1-1.2-2.5-0.3-3.5
		C248.1,67.4,249.7,67.3,250.7,68.3z"/>
	<path class="st6" d="M258,68.4c1.1,1,1.2,2.8,0.1,4c-1.1,1.2-2.8,1.2-3.9,0.2c-1.1-1-1.2-2.8-0.1-4C255.1,67.4,256.8,67.3,258,68.4
		z"/>
</g>
<g>
	<path class="st0" d="M323.5,122.7c-0.6-0.2-1.1-0.4-1.7-0.5c-0.6-0.1-1.2-0.2-1.8-0.2c-0.7,0-1.4,0.1-2,0.3c-0.7,0.2-1.2,0.6-1.7,1
		c-0.5,0.5-0.9,1.1-1.2,1.8c-0.3,0.7-0.4,1.6-0.4,2.5c0,0.9,0.1,1.7,0.4,2.4c0.3,0.7,0.6,1.3,1.1,1.8c0.5,0.5,1,0.8,1.7,1.1
		c0.7,0.2,1.4,0.4,2.2,0.4c0.5,0,1,0,1.5-0.1c0.4-0.1,0.9-0.2,1.3-0.3v-5.2h1.2v6c-0.7,0.2-1.4,0.4-2.1,0.5
		c-0.7,0.1-1.4,0.2-2.1,0.2c-1,0-1.8-0.1-2.6-0.4s-1.5-0.7-2-1.3c-0.6-0.6-1-1.2-1.3-2c-0.3-0.8-0.5-1.7-0.5-2.7
		c0-1,0.2-1.9,0.5-2.7c0.3-0.8,0.8-1.6,1.4-2.2c0.6-0.6,1.3-1.1,2.2-1.5c0.9-0.4,1.8-0.5,2.9-0.5c1.2,0,2.4,0.2,3.5,0.5L323.5,122.7
		z"/>
	<path class="st0" d="M337.4,134.2l-5-6.2h-0.1v6.2H331v-13.1c0.4,0,0.8,0,1.3,0c0.4,0,1,0,1.7,0c0.6,0,1.1,0.1,1.7,0.2
		c0.5,0.1,1,0.3,1.3,0.5c0.4,0.3,0.7,0.6,0.9,1c0.2,0.4,0.3,0.9,0.3,1.5c0,0.6-0.1,1.1-0.3,1.6c-0.2,0.5-0.5,0.8-1,1.1
		c-0.4,0.3-0.9,0.5-1.4,0.7c-0.5,0.2-1.1,0.2-1.7,0.3c0.2,0.2,0.4,0.4,0.6,0.7c0.2,0.2,0.4,0.5,0.6,0.7l4.1,4.9H337.4z M336.9,124.5
		c0-0.9-0.3-1.6-0.9-1.9c-0.6-0.4-1.4-0.5-2.4-0.5c-0.3,0-0.5,0-0.7,0c-0.2,0-0.4,0-0.6,0v4.9c0.1,0,0.3,0,0.5,0c0.2,0,0.5,0,0.8,0
		c1.1,0,1.9-0.2,2.5-0.7C336.6,125.9,336.9,125.2,336.9,124.5z"/>
	<path class="st0" d="M356,127.5c0,1.1-0.2,2.1-0.5,2.9c-0.3,0.8-0.8,1.6-1.3,2.1c-0.5,0.6-1.2,1-1.9,1.3c-0.7,0.3-1.5,0.4-2.4,0.4
		c-1,0-1.8-0.2-2.5-0.5c-0.7-0.3-1.3-0.8-1.8-1.3c-0.5-0.6-0.8-1.3-1.1-2.1c-0.2-0.8-0.3-1.7-0.3-2.7c0-1.1,0.2-2.1,0.5-2.9
		c0.3-0.8,0.8-1.6,1.3-2.1c0.5-0.6,1.2-1,1.9-1.3c0.7-0.3,1.5-0.4,2.3-0.4c0.9,0,1.7,0.1,2.4,0.4c0.7,0.3,1.3,0.7,1.8,1.3
		c0.5,0.6,0.9,1.3,1.1,2.1C355.9,125.5,356,126.5,356,127.5z M354.6,127.7c0-1.8-0.4-3.3-1.2-4.3c-0.8-1-1.9-1.5-3.4-1.5
		c-0.6,0-1.2,0.1-1.7,0.4c-0.6,0.2-1,0.6-1.5,1.1c-0.4,0.5-0.8,1.1-1,1.7c-0.2,0.7-0.4,1.5-0.4,2.4c0,0.9,0.1,1.6,0.3,2.3
		c0.2,0.7,0.5,1.3,0.8,1.8c0.4,0.5,0.9,0.9,1.4,1.2c0.6,0.3,1.2,0.4,2,0.4c0.6,0,1.2-0.1,1.7-0.4c0.6-0.2,1-0.6,1.5-1.1
		c0.4-0.5,0.8-1,1-1.7C354.5,129.4,354.6,128.6,354.6,127.7z"/>
	<path class="st0" d="M370.9,133c-0.8,0.9-2.1,1.3-3.8,1.3c-1,0-1.8-0.1-2.5-0.4c-0.6-0.3-1.1-0.6-1.5-1c-0.4-0.4-0.6-0.9-0.7-1.4
		c-0.1-0.5-0.2-1.1-0.2-1.6v-8.8h1.2v8.7c0,0.5,0,1,0.1,1.4c0.1,0.4,0.3,0.8,0.6,1.1c0.3,0.3,0.6,0.6,1.1,0.8
		c0.5,0.2,1.1,0.3,1.8,0.3c0.6,0,1.2-0.1,1.6-0.2c0.5-0.1,0.9-0.4,1.2-0.7c0.3-0.3,0.6-0.7,0.7-1.2c0.2-0.5,0.2-1.1,0.2-1.9v-8.3
		h1.2v8.2C372.2,130.9,371.8,132.2,370.9,133z"/>
	<path class="st0" d="M386.8,124.7c0,0.6-0.1,1.2-0.4,1.7c-0.3,0.5-0.6,1-1.1,1.3c-0.5,0.4-1,0.7-1.6,0.9c-0.6,0.2-1.3,0.3-2,0.3
		c-0.4,0-0.8,0-1.2-0.1v5.3h-1.2v-13.1c0.9,0,1.9-0.1,3-0.1c0.7,0,1.4,0.1,1.9,0.3c0.6,0.2,1,0.4,1.4,0.8c0.4,0.3,0.7,0.7,0.9,1.2
		C386.7,123.7,386.8,124.2,386.8,124.7z M385.5,124.9c0-0.9-0.3-1.6-0.8-2.1c-0.6-0.5-1.4-0.7-2.6-0.7c-0.3,0-0.6,0-0.8,0
		c-0.2,0-0.5,0-0.7,0v5.7c0.2,0,0.4,0,0.6,0.1c0.2,0,0.4,0,0.7,0c1.1,0,2-0.3,2.6-0.8C385.2,126.5,385.5,125.8,385.5,124.9z"/>
</g>
</svg>
