<?xml version="1.0" encoding="utf-8"?>
<!-- Generator: Adobe Illustrator 23.0.1, SVG Export Plug-In . SVG Version: 6.00 Build 0)  -->
<svg version="1.1" id="Layer_1" xmlns="http://www.w3.org/2000/svg" xmlns:xlink="http://www.w3.org/1999/xlink" x="0px" y="0px"
	 viewBox="0 0 283.5 88.6" style="enable-background:new 0 0 283.5 88.6;" xml:space="preserve">
<style type="text/css">
	.st0{fill:#FFFFFF;}
	.st1{fill:#2BB8C9;}
	.st2{fill:#1E3E73;}
</style>
<g>
	<path class="st0" d="M43.8,11.8c-17.9,0-32.5,14.6-32.5,32.5c0,17.9,14.6,32.5,32.5,32.5c17.9,0,32.5-14.6,32.5-32.5
		C76.3,26.4,61.7,11.8,43.8,11.8z M43.8,68.7c-13.4,0-24.4-10.9-24.4-24.4c0-13.4,10.9-24.4,24.4-24.4c13.4,0,24.4,10.9,24.4,24.4
		C68.2,57.7,57.2,68.7,43.8,68.7z"/>
</g>
<path class="st0" d="M258.1,34.4l7.8,0c6.2-0.1,11.1-5.1,11.1-11.4c0-6.3-5.1-11.4-11.4-11.4h-20.8v8.6h20.8c1.5,0,2.8,1.2,2.8,2.8
	c0,1.5-1.2,2.8-2.8,2.8h-20.8v7.5l32.6,32.6h6v-6.1L258.1,34.4z"/>
<polygon class="st0" points="241.2,34.4 245.4,30.1 241.2,25.9 215.8,25.9 215.8,20.3 237,20.3 237,11.7 207.2,11.7 207.2,25.9 
	178.2,25.9 178.2,20.3 199.5,20.3 199.5,11.7 169.6,11.7 169.6,48.6 199.5,48.6 199.5,40 178.2,40 178.2,34.4 207.2,34.4 
	207.2,48.6 237,48.6 237,40 215.8,40 215.8,34.4 "/>
<path class="st0" d="M164.9,11.7h-56.7c-6.3,0-11.4,5.1-11.4,11.4c0,6.3,5.1,11.4,11.4,11.4h14.1c1.5,0,2.8,1.2,2.8,2.8
	c0,1.5-1.2,2.8-2.8,2.8l-33.2,0l4.2,4.3l-4.2,4.3h33.2c6.3,0,11.4-5.1,11.4-11.4c0-6.3-5.1-11.4-11.4-11.4h-14.1
	c-1.5,0-2.8-1.2-2.8-2.8c0-1.5,1.2-2.8,2.8-2.8h35.7l0,64.1l4.3,4.2l4.3-4.2V20.3h12.4l4.2-4.3L164.9,11.7z"/>
<g>
	<polygon class="st1" points="169.6,11.7 164.9,11.7 169.1,16 164.9,20.3 169.6,20.3 173.8,16 	"/>
</g>
<g>
	<polygon class="st1" points="245.9,25.9 241.2,25.9 245.4,30.1 241.2,34.4 245.9,34.4 250.1,30.1 	"/>
</g>
<path class="st2" d="M88.6,44.3"/>
<polygon class="st0" points="84.4,48.6 88.6,44.3 84.4,40 54.7,40 54.7,40 54.7,40 75.7,19 75.6,13 69.6,12.9 48.6,33.9 48.6,33.9 
	48.6,4.2 44.3,0 40,4.2 40,33.9 19,12.9 13,13 12.9,19 33.9,40 4.2,40 0,44.3 4.2,48.6 33.9,48.6 12.9,69.6 13,75.6 19,75.7 
	40,54.7 40,54.7 40,84.4 44.3,88.6 48.6,84.4 48.6,54.7 48.6,54.7 48.6,54.7 69.6,75.7 75.6,75.6 75.7,69.6 54.7,48.6 54.7,48.6 
	54.7,48.6 "/>
<path class="st1" d="M43.8,30c-7.9,0-14.3,6.4-14.3,14.3c0,7.9,6.4,14.3,14.3,14.3c7.9,0,14.3-6.4,14.3-14.3
	C58.1,36.4,51.7,30,43.8,30z"/>
<g>
	<path class="st0" d="M159.2,54.2h3.8c3.1,0,4.8,1.3,4.8,3.6c0,1.5-0.8,2.5-2.4,2.9c1.9,0.5,2.9,1.8,2.9,3.8c0,2.6-1.6,3.9-4.9,3.9
		h-4.1V54.2z M162.1,59.7h0.8c1.2,0,1.9-0.5,1.9-1.4c0-0.9-0.7-1.5-1.8-1.5h-0.8V59.7z M162.9,65.7c1.6,0,2.4-0.3,2.4-1.5
		c0-1.1-0.8-1.7-2.1-1.7h-1v3.2H162.9z"/>
	<path class="st0" d="M182.6,63.3c0,1.7-0.1,3-0.9,3.9c-0.8,1-2,1.4-3.6,1.4s-2.8-0.4-3.6-1.4c-0.8-0.9-0.9-2.1-0.9-3.9v-9.1h2.9
		v8.4c0,2.2,0.1,3.4,1.5,3.4c1.4,0,1.5-1.1,1.5-3.4v-8.4h2.9V63.3z"/>
	<path class="st0" d="M190.7,64c0.1,1.3,0.7,2,1.8,2c1.1,0,1.7-0.6,1.7-1.5c0-0.8-0.4-1.3-1.4-1.7l-1.8-0.7c-2.1-0.8-3.1-2.1-3.1-4
		c0-2.5,1.7-4.2,4.5-4.2c2.6,0,4.2,1.5,4.4,4.2H194c-0.2-1.1-0.7-1.7-1.7-1.7c-0.9,0-1.5,0.5-1.5,1.3c0,0.7,0.4,1.2,1.2,1.5l1.9,0.7
		c2.1,0.8,3.1,2.2,3.1,4.3c0,2.7-1.7,4.2-4.6,4.2c-2.9,0-4.6-1.6-4.6-4.6H190.7z"/>
	<path class="st0" d="M202.5,68.3V54.2h2.9v14.1H202.5z"/>
	<path class="st0" d="M214.5,59c0.3,1.2,0.4,2.3,0.4,3.4v6H212V54.2h2.8l3,6.4c0.3,0.6,0.6,1.4,0.9,2.5c-0.3-1.2-0.4-2.3-0.4-3.4
		v-5.6h2.9v14.1h-2.6l-3.3-6.8C215.2,61,214.9,60.2,214.5,59z"/>
	<path class="st0" d="M227.8,54.2h7.7v2.7h-4.7v2.7h4.7V62h-4.7v3.6h4.7v2.7h-7.7V54.2z"/>
	<path class="st0" d="M243.4,64c0.1,1.3,0.7,2,1.8,2c1.1,0,1.7-0.6,1.7-1.5c0-0.8-0.4-1.3-1.4-1.7l-1.8-0.7c-2.1-0.8-3.1-2.1-3.1-4
		c0-2.5,1.7-4.2,4.5-4.2c2.6,0,4.2,1.5,4.4,4.2h-2.8c-0.2-1.1-0.7-1.7-1.7-1.7c-0.9,0-1.5,0.5-1.5,1.3c0,0.7,0.4,1.2,1.2,1.5
		l1.9,0.7c2.1,0.8,3.1,2.2,3.1,4.3c0,2.7-1.7,4.2-4.6,4.2c-2.9,0-4.6-1.6-4.6-4.6H243.4z"/>
	<path class="st0" d="M257.2,64c0.1,1.3,0.7,2,1.8,2c1.1,0,1.7-0.6,1.7-1.5c0-0.8-0.4-1.3-1.4-1.7l-1.8-0.7c-2.1-0.8-3.1-2.1-3.1-4
		c0-2.5,1.7-4.2,4.5-4.2c2.6,0,4.2,1.5,4.4,4.2h-2.8c-0.2-1.1-0.7-1.7-1.7-1.7c-0.9,0-1.5,0.5-1.5,1.3c0,0.7,0.4,1.2,1.2,1.5
		l1.9,0.7c2.1,0.8,3.1,2.2,3.1,4.3c0,2.7-1.7,4.2-4.6,4.2c-2.9,0-4.6-1.6-4.6-4.6H257.2z"/>
</g>
<g>
	<path class="st0" d="M91.1,68.3h-2.9v-5.8l-3.8-8.3h3.2l2.1,4.9l2.1-4.9h3.2l-3.8,8.3V68.3z"/>
	<path class="st0" d="M98.2,61.3c0-4.8,2-7.3,5.5-7.3c3.5,0,5.5,2.6,5.5,7.3c0,4.8-2,7.3-5.5,7.3C100.2,68.6,98.2,66,98.2,61.3z
		 M103.7,56.7c-1.7,0-2.5,1.5-2.5,4.6c0,3,0.8,4.6,2.5,4.6c1.6,0,2.5-1.5,2.5-4.6C106.2,58.2,105.4,56.7,103.7,56.7z"/>
	<path class="st0" d="M123.1,63.3c0,1.7-0.1,3-0.9,3.9c-0.8,1-2,1.4-3.6,1.4s-2.8-0.4-3.6-1.4c-0.8-0.9-0.9-2.1-0.9-3.9v-9.1h2.9
		v8.4c0,2.2,0.1,3.4,1.5,3.4c1.4,0,1.5-1.1,1.5-3.4v-8.4h2.9V63.3z"/>
	<path class="st0" d="M129,68.3V54.2h4.7c2.6,0,4.2,1.6,4.2,4.5c0,2.2-0.9,3.6-2.7,4.1l3.4,5.4h-3.4l-3.2-5.4v5.4H129z M133.1,60.5
		c1.2,0,1.9-0.6,1.9-1.8c0-1.2-0.7-1.9-1.8-1.9h-1.2v3.6H133.1z"/>
</g>
<g>
	<polygon class="st1" points="89.1,40 84.4,40 88.6,44.3 84.4,48.6 89.1,48.6 93.3,44.3 	"/>
</g>
</svg>
