<svg id="Layer_1" data-name="Layer 1" xmlns="http://www.w3.org/2000/svg" viewBox="0 0 600 160"><title>supersonic-playground-logo</title><path d="M240.8393,138.8934a10.1828,10.1828,0,0,1-1.48-5.942l.007-49.6573L236.405,86.238h-.0065v.0065l-.0018.0018h.0018v46.7052q0,10.983,9.7044,10.8181v-2.6229Q242.3193,140.9838,240.8393,138.8934Z" fill="#282d32"/><path d="M279.6009,143.6056l-.8227-4.4253a17.59,17.59,0,0,1-3.3719,2.54,17.22,17.22,0,0,1-3.4542,1.5161,19.7035,19.7035,0,0,1-3.3719.7379,25.571,25.571,0,0,1-3.1251.205,21.857,21.857,0,0,1-7.5248-1.1888,16.2815,16.2815,0,0,1-5.387-3.1141,13.2633,13.2633,0,0,1-3.2485-4.3433,11.5808,11.5808,0,0,1-1.1107-4.8762,11.8619,11.8619,0,0,1,1.1107-4.9178,12.7112,12.7112,0,0,1,3.3308-4.3843,17.68,17.68,0,0,1,5.592-3.1551,24.5855,24.5855,0,0,1,7.9779-1.3111,20.0114,20.0114,0,0,1,2.59.205,31.5035,31.5035,0,0,1,3.2074.6142,28.909,28.909,0,0,1,3.4131,1.0658,22.8,22.8,0,0,1,3.29,1.5571v-2.8688a14.78,14.78,0,0,0-1.11-6.0233,10.5026,10.5026,0,0,0-3.0017-4.016,12.2025,12.2025,0,0,0-4.3592-2.213,19.0234,19.0234,0,0,0-5.1813-.6962,19.5642,19.5642,0,0,0-6.1268.9832,30.65,30.65,0,0,0-5.7161,2.5409l-1.398-2.213a21.1959,21.1959,0,0,1,6.3736-3.0731,24.6249,24.6249,0,0,1,6.95-1.0242,21.491,21.491,0,0,1,6.21.9012,14.0163,14.0163,0,0,1,8.9234,7.7034,16.56,16.56,0,0,1,1.398,7.13v26.1435Zm-.905-20.3245a23.4619,23.4619,0,0,0-6.3736-2.7049,24.8685,24.8685,0,0,0-6.0445-.8192,21.0534,21.0534,0,0,0-6.62.9422,15.126,15.126,0,0,0-4.7294,2.4589,10.0257,10.0257,0,0,0-2.8371,3.4831,9.0918,9.0918,0,0,0-.0411,7.99,10.0591,10.0591,0,0,0,2.7137,3.4421,13.6871,13.6871,0,0,0,4.4826,2.4179,19.4009,19.4009,0,0,0,6.2091.9012,19.0888,19.0888,0,0,0,7.0729-1.4751,15.2572,15.2572,0,0,0,6.1679-4.4253Z" fill="#282d32"/><path d="M355.9581,144.18a18.231,18.231,0,0,1-1.2335,7.0481A13.2216,13.2216,0,0,1,346.5,158.972a20.1185,20.1185,0,0,1-5.9211,1.0242,21.61,21.61,0,0,1-8.6766-1.5571,26.5554,26.5554,0,0,1-7.4432-4.6712l1.7271-2.049a19.3336,19.3336,0,0,0,6.6616,4.139,20.8568,20.8568,0,0,0,7.6488,1.27,14.6952,14.6952,0,0,0,4.8111-.7782,10.8925,10.8925,0,0,0,6.7027-6.3929,15.2541,15.2541,0,0,0,.9873-5.7774v-2.4589a19.2278,19.2278,0,0,1-6.3331,2.131,44.39,44.39,0,0,1-5.099.3279,21.0613,21.0613,0,0,1-8.9234-1.803,19.8149,19.8149,0,0,1-6.5793-4.7942,20.8164,20.8164,0,0,1-4.0706-6.8432,23.77,23.77,0,0,1,0-16.0633,20.7148,20.7148,0,0,1,4.03-6.8022,19.202,19.202,0,0,1,6.5388-4.7122,21.6976,21.6976,0,0,1,9.0051-1.762,62.2461,62.2461,0,0,1,7.1552.4093,40.1631,40.1631,0,0,1,7.2375,1.5577Zm-14.3927-40.0758a18.258,18.258,0,0,0-7.73,1.5571,16.6522,16.6522,0,0,0-5.6338,4.139,18.1815,18.1815,0,0,0-3.4542,5.9,19.8534,19.8534,0,0,0-1.1923,6.7612,21.4991,21.4991,0,0,0,1.1923,7.1711,18.0832,18.0832,0,0,0,3.4953,6.024,16.9078,16.9078,0,0,0,5.6338,4.1793,17.96,17.96,0,0,0,7.6893,1.5571,35.96,35.96,0,0,0,5.4692-.4093,21.6514,21.6514,0,0,0,6.0452-2.049V105.3328a56.6183,56.6183,0,0,0-11.5148-1.2291Z" fill="#282d32"/><path d="M379.5654,104.5957a12.0011,12.0011,0,0,1,2.6068.8619,27.537,27.537,0,0,1,1.7387-2.1366,20.1682,20.1682,0,0,0-3.1532-1.2663,14.7066,14.7066,0,0,0-4.0706-.4912,17.24,17.24,0,0,0-6.7027,1.3931,12.3188,12.3188,0,0,0-5.7161,5.491l-.3291-6.3109h-2.6315v41.4689h2.8783V116.8069a12.1236,12.1236,0,0,1,.9455-5.2862,11.4061,11.4061,0,0,1,2.7966-3.9339,12.6558,12.6558,0,0,1,4.03-2.4583,13.1851,13.1851,0,0,1,4.7294-.8608A16.006,16.006,0,0,1,379.5654,104.5957Z" fill="#282d32"/><path d="M426.7241,122.8712a22.1681,22.1681,0,0,1-1.7271,8.8512,20.5729,20.5729,0,0,1-4.6883,6.8432,21.1892,21.1892,0,0,1-6.8672,4.3843,22.2808,22.2808,0,0,1-16.3659,0,21.189,21.189,0,0,1-6.8672-4.3843,20.5619,20.5619,0,0,1-4.6876-6.8432,23.5441,23.5441,0,0,1,0-17.7023,20.7325,20.7325,0,0,1,11.5549-11.3094,22.2808,22.2808,0,0,1,16.3659,0,21.211,21.211,0,0,1,6.8672,4.3843,20.5866,20.5866,0,0,1,4.6883,6.8432A22.39,22.39,0,0,1,426.7241,122.8712Zm-40.0523,0a19.9666,19.9666,0,0,0,1.7271,8.6872,17.4546,17.4546,0,0,0,4.4408,5.901,17.6441,17.6441,0,0,0,6.004,3.36,20.742,20.742,0,0,0,6.4147,1.0652,20.9922,20.9922,0,0,0,6.497-1.0652,17.65,17.65,0,0,0,6.004-3.36,17.4546,17.4546,0,0,0,4.4408-5.901,19.9575,19.9575,0,0,0,1.7271-8.6872A19.7556,19.7556,0,0,0,422.2,114.266a17.6781,17.6781,0,0,0-10.4448-9.3834,20.287,20.287,0,0,0-6.497-1.1068,20.7624,20.7624,0,0,0-6.4147,1.0658,17.6658,17.6658,0,0,0-6.004,3.36,17.3806,17.3806,0,0,0-4.4408,5.9413,20.2468,20.2468,0,0,0-1.7269,8.7283Z" fill="#282d32"/><path d="M466.4244,141.4747a31.7537,31.7537,0,0,1-7.1552,2.213,42.9308,42.9308,0,0,1-7.6488.6559,24.6521,24.6521,0,0,1-7.6482-1.1478,18.2218,18.2218,0,0,1-6.21-3.4011,15.7679,15.7679,0,0,1-4.194-5.573,18.19,18.19,0,0,1-1.5214-7.6624V102.0547h2.8783v24.4225a15.4844,15.4844,0,0,0,1.3157,6.5972,13.768,13.768,0,0,0,3.5776,4.7532,14.8387,14.8387,0,0,0,5.3047,2.8688,21.545,21.545,0,0,0,6.4147.9422,45.5938,45.5938,0,0,0,5.7161-.3689,26.7085,26.7085,0,0,0,6.2913-1.68v-37.535h2.8789Z" fill="#282d32"/><path d="M471.8473,103.6938q3.7013-1.1468,7.2786-1.885a37.663,37.663,0,0,1,7.6077-.7372,24.3876,24.3876,0,0,1,7.5659,1.1471,18.3014,18.3014,0,0,1,6.21,3.4011,16.021,16.021,0,0,1,4.194,5.4911,17.2507,17.2507,0,0,1,1.5214,7.4171v25.0777h-2.8783V118.5279a14.3508,14.3508,0,0,0-1.48-6.8022,13.5692,13.5692,0,0,0-3.9067-4.59,16.0081,16.0081,0,0,0-5.5927-2.6222,26.04,26.04,0,0,0-6.5381-.82,35.3737,35.3737,0,0,0-11.02,1.885v38.0268h-2.9612Z" fill="#282d32"/><path d="M546.2723,83.2941l-2.9693,2.9521h.0086v17.6115a25.99,25.99,0,0,0-6.1275-2.008,23.5848,23.5848,0,0,0-5.2224-.5322,20.2551,20.2551,0,0,0-8.8,1.967,19.5341,19.5341,0,0,0-6.3324,4.9171,21.2611,21.2611,0,0,0-3.8656,6.8842,24.9586,24.9586,0,0,0-1.3569,7.8673,25.5233,25.5233,0,0,0,1.1512,7.8673,18.7938,18.7938,0,0,0,10.1569,11.679,20.8035,20.8035,0,0,0,9.0468,1.844,48.615,48.615,0,0,0,7.0729-.5329,62.03,62.03,0,0,0,7.2374-1.516Zm-2.9607,56.8694a31.3158,31.3158,0,0,1-5.9218,1.1472q-2.7973.2459-5.4281.3279a17.5082,17.5082,0,0,1-7.73-1.5981,16.1752,16.1752,0,0,1-5.4693-4.22,17.585,17.585,0,0,1-3.2485-5.983,21.6954,21.6954,0,0,1-1.0285-6.8842,23.0585,23.0585,0,0,1,1.1519-6.9251,17.7447,17.7447,0,0,1,3.3308-6.0233,17.253,17.253,0,0,1,5.4692-4.262,16.49,16.49,0,0,1,7.5248-1.6391,30.8888,30.8888,0,0,1,11.35,2.4589Z" fill="#282d32"/><path d="M316.4635,102.0547l-14.8857,38.6008L287.75,106.1327l-2.1945,2.1868,14.5424,35.5321-3.4542,8.6872a6.67,6.67,0,0,1-2.7966,3.6471,11.0832,11.0832,0,0,1-5.3349,1.0239v-.0118h-2.5689l2.5586,2.5439v.009h.0091l.0011.0011v-.0011h.9764a13.1937,13.1937,0,0,0,5.8806-1.2708q2.5906-1.2718,3.9883-5.1222l20.2315-51.3032Z" fill="#282d32"/><path d="M223.5447,24.9716a9.6191,9.6191,0,0,0-4.1693-4.2867,11.0006,11.0006,0,0,0-4.6123-1.1049,11.7607,11.7607,0,0,0-2.6611.309,6.8009,6.8009,0,0,0-2.3952,1.0609,6.1145,6.1145,0,0,0-1.7741,1.9888,6.621,6.621,0,0,0-.7982,3.0057,4.5985,4.5985,0,0,0,.7982,3.0048,8.7644,8.7644,0,0,0,2.2618,2.1658,14.4586,14.4586,0,0,0,3.0163,1.5469,30.96,30.96,0,0,0,2.9712.972,64.5768,64.5768,0,0,1,7.1851,2.3868,21.41,21.41,0,0,1,6.2981,3.8456,17.7329,17.7329,0,0,1,4.391,6.0546A19.7241,19.7241,0,0,1,235.52,54.76a16.5856,16.5856,0,0,1-2.1734,7.9554,18.5531,18.5531,0,0,1-5.0117,5.5686,20.9921,20.9921,0,0,1-6.7858,3.2707,27.5836,27.5836,0,0,1-7.4956,1.0609,25.3073,25.3073,0,0,1-5.5882-.6629,21.272,21.272,0,0,1-5.81-2.2987A21.82,21.82,0,0,1,197.2,65.1463a27.1083,27.1083,0,0,1-4.524-7.38l9.7574-5.5694a15.6116,15.6116,0,0,0,5.7216,6.9394,12.1433,12.1433,0,0,0,6.1651,2.0769,8.3517,8.3517,0,0,0,6.0317-1.9888,7.27,7.27,0,0,0,2.4835-5.1706,7.38,7.38,0,0,0-.7536-3.8007,8.1151,8.1151,0,0,0-2.3064-2.6967,13.9462,13.9462,0,0,0-3.2376-1.8119,30.1366,30.1366,0,0,0-3.46-1.1489,57.0763,57.0763,0,0,1-5.5882-1.8119,24.9862,24.9862,0,0,1-6.0763-3.3147,18.6691,18.6691,0,0,1-4.8787-5.3925,14.6261,14.6261,0,0,1-1.907-8.0434,17.6444,17.6444,0,0,1,1.907-8.0883,17.3717,17.3717,0,0,1,4.6569-5.6126,19.2276,19.2276,0,0,1,6.431-3.2707A25.4133,25.4133,0,0,1,214.8514,8,20.8112,20.8112,0,0,1,225.23,10.6967a20.1822,20.1822,0,0,1,7.8945,8.7944Z" fill="#282d32"/><path d="M280.8845,68.8149a60.3294,60.3294,0,0,1-9.8016,2.6069,53.3328,53.3328,0,0,1-8.8262.7519,29.3994,29.3994,0,0,1-8.9592-1.3259,21.1828,21.1828,0,0,1-7.3181-3.9777,18.855,18.855,0,0,1-4.9675-6.5414,20.8431,20.8431,0,0,1-1.8183-8.9273V26.4744h12.0638v25.015a8.6364,8.6364,0,0,0,1.4635,5.7015,9.9871,9.9871,0,0,0,4.2134,3.3588,14.3252,14.3252,0,0,0,5.7216,1.1049,18.3343,18.3343,0,0,0,5.9875-.972V26.4744h12.2409Z" fill="#282d32"/><path d="M371.43,63.7764a25.4854,25.4854,0,0,1-8.5156,6.4525,24.8125,24.8125,0,0,1-19.4706-.088,21.5909,21.5909,0,0,1-7.1847-5.3485,22.0988,22.0988,0,0,1-4.3022-7.5134,26.4458,26.4458,0,0,1-1.4193-8.5294,25.3745,25.3745,0,0,1,1.4635-8.4862A22.08,22.08,0,0,1,353.423,25.5025a23.6733,23.6733,0,0,1,9.0038,1.6789,20.5218,20.5218,0,0,1,7.0517,4.6846,21.5128,21.5128,0,0,1,4.5682,7.1163,23.5049,23.5049,0,0,1,1.6411,8.7944q0,1.0617-.0888,2.6518a24.0234,24.0234,0,0,1-.4435,3.36H342.69a9.19,9.19,0,0,0,3.2818,5.3036,12.3326,12.3326,0,0,0,5.677,2.4748,15.8292,15.8292,0,0,0,6.6974-.3979A14.9567,14.9567,0,0,0,364.6,57.7658Zm-7.6286-19.27a10.3619,10.3619,0,0,0-1.3747-3.9337,9.168,9.168,0,0,0-5.5-4.1546,12.6339,12.6339,0,0,0-3.4152-.486,13.4176,13.4176,0,0,0-3.5482.486,10.4723,10.4723,0,0,0-3.2818,1.5469,9.644,9.644,0,0,0-3.9917,6.5414Z" fill="#282d32"/><path d="M389.1738,26.0325l.9758,4.6846a13.07,13.07,0,0,1,4.6128-3.7567,14.0791,14.0791,0,0,1,5.4994-1.4139,14.57,14.57,0,0,1,5.5886.84,15.1613,15.1613,0,0,1,4.9675,2.9168l-5.1451,9.1043a12.1146,12.1146,0,0,0-4.6569-1.8559,10.2474,10.2474,0,0,0-4.6569.1761,7.5636,7.5636,0,0,0-3.5923,2.2547,6.3178,6.3178,0,0,0-1.4635,4.3748V71.29H379.328V26.0325Z" fill="#282d32"/><path d="M425.4525,43.0041q.7088.1774,1.2859.265a10.0486,10.0486,0,0,1,1.1976.265,33.5732,33.5732,0,0,1,5.7657,1.5909,19.0846,19.0846,0,0,1,5.1,2.8287,13.96,13.96,0,0,1,3.6369,4.2427,11.8351,11.8351,0,0,1,1.3747,5.8344,12.5978,12.5978,0,0,1-1.6853,6.7175,14.14,14.14,0,0,1-4.3022,4.4637,18.0166,18.0166,0,0,1-5.7211,2.4757,25.0056,25.0056,0,0,1-5.8545.751,22.249,22.249,0,0,1-8.915-1.9448,21.0922,21.0922,0,0,1-8.2051-6.8064l6.6528-6.8945a13.3975,13.3975,0,0,0,4.9233,3.6686,17.1013,17.1013,0,0,0,5.7211,1.37,8.4307,8.4307,0,0,0,1.8629-.221,5.2878,5.2878,0,0,0,1.7741-.751,4.689,4.689,0,0,0,1.2864-1.2378,2.741,2.741,0,0,0,.4877-1.5909,3.1875,3.1875,0,0,0-.5765-1.9888,3.7666,3.7666,0,0,0-1.4635-1.1489,9.8643,9.8643,0,0,0-1.8629-.6189q-.9771-.22-1.8629-.3979a28.8315,28.8315,0,0,1-5.4552-1.6349,18.3625,18.3625,0,0,1-4.8345-2.8728,14.1939,14.1939,0,0,1-3.4594-4.2435,11.944,11.944,0,0,1-1.3306-5.7455,12.7183,12.7183,0,0,1,1.4193-6.0986,13.307,13.307,0,0,1,3.77-4.42,17.2133,17.2133,0,0,1,5.411-2.6958,21.4251,21.4251,0,0,1,6.2534-.9288,20.7223,20.7223,0,0,1,7.3181,1.4588,22.5247,22.5247,0,0,1,7.85,5.5245L436.54,38.7614a14.3145,14.3145,0,0,0-4.6569-2.3868,15.7875,15.7875,0,0,0-4.1251-.6189,7.5539,7.5539,0,0,0-1.7295.221,5.3388,5.3388,0,0,0-1.73.751,5.0273,5.0273,0,0,0-1.3306,1.2819,3.0554,3.0554,0,0,0-.5323,1.8119,2.5927,2.5927,0,0,0,.9316,1.9888A5.455,5.455,0,0,0,425.4525,43.0041Z" fill="#282d32"/><path d="M493.6826,48.9265a24.9642,24.9642,0,0,1-1.7741,9.5462,21.5973,21.5973,0,0,1-4.9675,7.4245,23.3166,23.3166,0,0,1-7.54,4.8616,25.8889,25.8889,0,0,1-18.8054,0,23.3079,23.3079,0,0,1-7.54-4.8616,22.1029,22.1029,0,0,1-5.0117-7.4245,24.4079,24.4079,0,0,1-1.8183-9.5462,24.9769,24.9769,0,0,1,1.8183-9.6792,22.0211,22.0211,0,0,1,5.0117-7.4694,22.766,22.766,0,0,1,7.54-4.8176,26.5055,26.5055,0,0,1,18.8054,0,22.7747,22.7747,0,0,1,7.54,4.8176,21.5237,21.5237,0,0,1,4.9675,7.4694A25.5483,25.5483,0,0,1,493.6826,48.9265Zm-35.57,0a12.36,12.36,0,0,0,3.9475,9.3693,11.8375,11.8375,0,0,0,3.8141,2.3868,11.5073,11.5073,0,0,0,4.1246.795,11.7416,11.7416,0,0,0,4.2134-.795,11.3651,11.3651,0,0,0,3.77-2.3868,11.8353,11.8353,0,0,0,2.7057-3.9337,13.522,13.522,0,0,0,1.02-5.4356,14.3494,14.3494,0,0,0-1.02-5.6575,10.8328,10.8328,0,0,0-2.7057-3.89,11.4875,11.4875,0,0,0-3.77-2.2538,12.3717,12.3717,0,0,0-4.2134-.751,12.1229,12.1229,0,0,0-4.1246.751A11.2254,11.2254,0,0,0,462.06,39.468a12.5885,12.5885,0,0,0-2.8387,3.9337,12.781,12.781,0,0,0-1.1091,5.5248Z" fill="#282d32"/><path d="M497.2915,28.7723a54.8945,54.8945,0,0,1,8.7374-2.3859,52.5094,52.5094,0,0,1,9.2693-.9288,36.6522,36.6522,0,0,1,8.87.9728,21.3921,21.3921,0,0,1,7.54,3.3588,16.7073,16.7073,0,0,1,5.2334,6.2315,21.9461,21.9461,0,0,1,2.04,9.5462V71.29H526.9184V45.6558a9.729,9.729,0,0,0-1.6853-5.9665,9.3669,9.3669,0,0,0-4.258-3.2267,13.577,13.577,0,0,0-5.6323-.795,17.6029,17.6029,0,0,0-5.81,1.3259V71.29H497.2915Z" fill="#282d32"/><polygon points="543.316 20.11 555.468 8 555.468 20.11 543.316 20.11" fill="#282d32"/><path d="M325.6937,39.91a22,22,0,0,0-4.5682-7.3813,22.438,22.438,0,0,0-7.4069-5.1706,24.6551,24.6551,0,0,0-10.068-1.9448,70.3333,70.3333,0,0,0-8.3381.5309,46.7931,46.7931,0,0,0-9.7574,2.3859V95.8889l12.1558-12.1132h-.0039V71.1128a27.3075,27.3075,0,0,0,3.371.663,24.6912,24.6912,0,0,0,3.1934.221,21.8559,21.8559,0,0,0,9.0921-1.9009,23.0539,23.0539,0,0,0,7.3181-5.1706A24.0572,24.0572,0,0,0,325.6937,39.91ZM314.1622,53.4343a13.4074,13.4074,0,0,1-2.6611,3.9777,12.0227,12.0227,0,0,1-3.9029,2.6518,11.88,11.88,0,0,1-4.7458.972,13.302,13.302,0,0,1-2.4394-.221,18.039,18.039,0,0,1-2.7057-.751V36.5516a26.3414,26.3414,0,0,1,3.0163-.3539q1.5073-.0868,2.927-.177a10.918,10.918,0,0,1,5.0117,1.1049,11.078,11.078,0,0,1,3.637,2.9168,12.4,12.4,0,0,1,2.1734,4.0226,14.1329,14.1329,0,0,1,.71,4.3306A12.2915,12.2915,0,0,1,314.1622,53.4343Z" fill="#282d32"/><path d="M592.7261,39.91a13.7192,13.7192,0,0,0-6.7858-3.58,12.8994,12.8994,0,0,0-7.0521.442,11.7981,11.7981,0,0,0-5.544,4.2867,13.5755,13.5755,0,0,0-2.3506,7.9554,12.2429,12.2429,0,0,0,7.7174,11.933,12.47,12.47,0,0,0,7.2293.53,13.6838,13.6838,0,0,0,7.14-4.2427l6.92,7.072a20.4639,20.4639,0,0,1-7.9833,6.3645,27.09,27.09,0,0,1-19.4706-.265A21.594,21.594,0,0,1,565.184,65.19a22.566,22.566,0,0,1-4.524-7.5134,25.23,25.23,0,0,1,.0442-17.5456,22.7267,22.7267,0,0,1,4.6128-7.5574,23.1937,23.1937,0,0,1,7.4069-5.3036,23.49,23.49,0,0,1,9.9792-2.0337,24.1346,24.1346,0,0,1,8.6486,1.5028,24.8486,24.8486,0,0,1,8.2051,5.6575Z" fill="#282d32"/><polygon points="555.467 60.618 555.467 26.474 543.315 26.474 543.315 72.726 543.317 72.726 555.467 60.618" fill="#282d32"/><path d="M228.4312,97.5233a16.4191,16.4191,0,0,0-3.3269-5.6068A17.2687,17.2687,0,0,0,219.6,87.9057a17.8857,17.8857,0,0,0-7.7214-1.5553H196.4361l.0021,60.2426,2.9536-2.9365h.0054l-.0042-22.8448h12.5682a18.7331,18.7331,0,0,0,7.7214-1.4739,16.3864,16.3864,0,0,0,5.4626-3.8468,16.1279,16.1279,0,0,0,3.2861-5.4028,17.965,17.965,0,0,0,1.1083-6.2211A19.0094,19.0094,0,0,0,228.4312,97.5233Zm-2.752,11.6238a13.1513,13.1513,0,0,1-2.71,4.461,13.6718,13.6718,0,0,1-4.5591,3.1926,15.9429,15.9429,0,0,1-6.5307,1.2278h-12.486V89.1335h12.4859a14.1384,14.1384,0,0,1,13.8,9.6177,16.3644,16.3644,0,0,1,.9035,5.28,14.9383,14.9383,0,0,1-.9035,5.116Z" fill="#282d32"/><path d="M0,0V160S11.2394,93.44,77.9409,54.3536l-6.009-6.6357a38.4473,38.4473,0,0,1-3.9642,1.418L65.464,46.33a26.3026,26.3026,0,0,1,2.96-2.4831l-10.7372-11.86c-.0412-.042-.8245-.8393.288-1.1017.307-.0912,6.1412-1.8232,8.847-1.1957s21.06,5.6628,22.0255,5.9278a28.3562,28.3562,0,0,0,8.8363.46,105.0306,105.0306,0,0,0,14.8486-2.4628l10.63-6.1013a55.9708,55.9708,0,0,1,21.2584-6.8575c-3.4654,7.2263-11.8349,12.1172-13.5194,13.1024L120.2736,39.861c-1.0071,1.241-4.5074,5.6989-6.0735,9.5439-1.5332,3.7577-.86,5.8928-.8249,6.0052.2209.6927,4.4175,13.8542,4.87,15.7752s-3.04,5.5425-3.2241,5.7331c-.5679.7021-1.59.0421-1.6442.0074L98.0111,67.7219a38.2936,38.2936,0,0,1-4.0956,1.567l-3.6412-2.1527a24.639,24.639,0,0,1,2.7242-2.4187L84.4,59.5657C51.2169,83.2457,53.5407,160,160.5629,160V0Z" fill="#2878d2"/></svg>